<svg xmlns="http://www.w3.org/2000/svg" xmlns:xlink="http://www.w3.org/1999/xlink" width="69" height="69" viewBox="0 0 69 69">
  <defs>
    <clipPath id="clip-path">
      <rect id="長方形_23001" data-name="長方形 23001" width="69" height="69" transform="translate(744.656 4551.656)" fill="#fff" stroke="#707070" stroke-width="1" opacity="0.488"/>
    </clipPath>
  </defs>
  <g id="マスクグループ_63" data-name="マスクグループ 63" transform="translate(-744.656 -4551.656)" clip-path="url(#clip-path)">
    <g id="グループ_5325" data-name="グループ 5325" transform="translate(745.452 4566.392)">
      <g id="グループ_4209" data-name="グループ 4209" transform="translate(0 0)">
        <g id="グループ_4208" data-name="グループ 4208">
          <path id="線_478" data-name="線 478" d="M7.639,8.539A.9.9,0,0,1,7,8.275L-.636.636a.9.9,0,0,1,0-1.273.9.9,0,0,1,1.273,0L8.275,7a.9.9,0,0,1-.636,1.536Z" transform="translate(7.214 17.54)"/>
          <path id="線_479" data-name="線 479" d="M0,13.207a.9.9,0,0,1-.635-.262.9.9,0,0,1,0-1.273L11.6-.635a.9.9,0,0,1,1.273,0,.9.9,0,0,1,0,1.273L.638,12.941A.9.9,0,0,1,0,13.207Z" transform="translate(8.841 5.305)"/>
          <path id="パス_1498" data-name="パス 1498" d="M982.631,45.975H974.5a4.927,4.927,0,0,1-3.466-1.415L967,40.6" transform="translate(-948.752 -38.125)" fill="rgba(0,0,0,0)"/>
          <path id="パス_1498_-_アウトライン" data-name="パス 1498 - アウトライン" d="M982.631,46.875H974.5a5.832,5.832,0,0,1-4.1-1.675l-4.029-3.958a.9.9,0,1,1,1.261-1.284l4.031,3.961.006.006a4.02,4.02,0,0,0,2.829,1.151h8.134a.9.9,0,1,1,0,1.8Z" transform="translate(-948.752 -38.125)"/>
          <path id="パス_1499" data-name="パス 1499" d="M941.2,55.418l4.1,4.1L963.62,41.2l-4.1-4.1" transform="translate(-941.2 -37.1)" fill="#fff"/>
          <path id="パス_1499_-_アウトライン" data-name="パス 1499 - アウトライン" d="M945.3,60.42a.9.9,0,0,1-.636-.264l-4.1-4.1a.9.9,0,1,1,1.273-1.273l3.466,3.466L962.348,41.2l-3.466-3.466a.9.9,0,0,1,1.273-1.273l4.1,4.1a.9.9,0,0,1,0,1.273L945.939,60.157A.9.9,0,0,1,945.3,60.42Z" transform="translate(-941.2 -37.1)"/>
          <g id="グループ_4206" data-name="グループ 4206" transform="translate(15.631 24.401)">
            <path id="パス_1500" data-name="パス 1500" d="M963.3,71.6l18.813,18.813a2.9,2.9,0,0,0,4.1-4.1l-1.627-1.627" transform="translate(-963.3 -71.6)" fill="rgba(0,0,0,0)"/>
            <path id="パス_1500_-_アウトライン" data-name="パス 1500 - アウトライン" d="M984.164,92.162a3.776,3.776,0,0,1-2.687-1.112L962.664,72.236a.9.9,0,0,1,1.273-1.273L982.75,89.777a2,2,0,0,0,2.829-2.829l-1.627-1.627a.9.9,0,0,1,1.273-1.273l1.627,1.627a3.8,3.8,0,0,1-2.687,6.487Z" transform="translate(-963.3 -71.6)"/>
            <path id="パス_1501" data-name="パス 1501" d="M989.8,85.5l5.022,5.022a2.9,2.9,0,0,0,4.1-4.1L995.6,83.1" transform="translate(-971.057 -74.966)" fill="rgba(0,0,0,0)"/>
            <path id="パス_1501_-_アウトライン" data-name="パス 1501 - アウトライン" d="M996.873,92.275a3.775,3.775,0,0,1-2.687-1.112l-5.022-5.022a.9.9,0,0,1,1.273-1.273l5.022,5.022a2,2,0,0,0,2.829-2.829l-3.324-3.324a.9.9,0,0,1,1.273-1.273l3.324,3.324a3.8,3.8,0,0,1-2.687,6.487Z" transform="translate(-971.057 -74.966)"/>
            <path id="パス_1502" data-name="パス 1502" d="M995.6,79.1l5.8,5.8a2.9,2.9,0,0,0,4.1-4.1L999.7,75" transform="translate(-972.755 -72.595)" fill="rgba(0,0,0,0)"/>
            <path id="パス_1502_-_アウトライン" data-name="パス 1502 - アウトライン" d="M1003.451,86.651a3.775,3.775,0,0,1-2.687-1.112l-5.8-5.8a.9.9,0,0,1,1.273-1.273l5.8,5.8a2,2,0,1,0,2.829-2.829l-5.8-5.8a.9.9,0,1,1,1.273-1.273l5.8,5.8a3.8,3.8,0,0,1-2.687,6.487Z" transform="translate(-972.755 -72.595)"/>
          </g>
          <g id="グループ_4207" data-name="グループ 4207" transform="translate(12.448 22.562)">
            <path id="パス_1503" data-name="パス 1503" d="M980.951,95.478a2.9,2.9,0,0,1-4.1-4.1l1.627-1.627a2.9,2.9,0,0,1,4.1,4.1Z" transform="translate(-963.835 -74.825)" fill="#fff"/>
            <path id="パス_1503_-_アウトライン" data-name="パス 1503 - アウトライン" d="M978.9,99.326a5.9,5.9,0,0,1-4.172-10.072l1.627-1.627a5.9,5.9,0,0,1,8.345,8.345L983.072,97.6A5.862,5.862,0,0,1,978.9,99.326Z" transform="translate(-963.835 -74.825)" fill="#fff"/>
            <path id="パス_1504" data-name="パス 1504" d="M963.751,77.275a2.9,2.9,0,0,1-4.1-4.1l3.324-3.324a2.9,2.9,0,1,1,4.1,4.1Z" transform="translate(-958.8 -69)" fill="#fff"/>
            <path id="パス_1504_-_アウトライン" data-name="パス 1504 - アウトライン" d="M961.7,81.124a5.9,5.9,0,0,1-4.172-10.072l3.324-3.324a5.9,5.9,0,0,1,8.345,8.345L965.872,79.4A5.862,5.862,0,0,1,961.7,81.124Z" transform="translate(-958.8 -69)" fill="#fff"/>
            <path id="パス_1505" data-name="パス 1505" d="M980.951,95.478a2.9,2.9,0,0,1-4.1-4.1l1.627-1.627a2.9,2.9,0,0,1,4.1,4.1Z" transform="translate(-963.835 -74.825)" fill="#fff"/>
            <path id="パス_1505_-_アウトライン" data-name="パス 1505 - アウトライン" d="M978.9,97.226a3.8,3.8,0,0,1-2.687-6.487l1.627-1.627a3.8,3.8,0,0,1,5.375,5.375l-1.627,1.627A3.776,3.776,0,0,1,978.9,97.226Zm1.627-7.426a1.987,1.987,0,0,0-1.415.585l-1.627,1.627a2,2,0,0,0,2.829,2.829l1.627-1.627a2,2,0,0,0-1.415-3.415Z" transform="translate(-963.835 -74.825)"/>
            <path id="パス_1506" data-name="パス 1506" d="M963.751,77.275a2.9,2.9,0,0,1-4.1-4.1l3.324-3.324a2.9,2.9,0,1,1,4.1,4.1Z" transform="translate(-958.8 -69)" fill="#fff"/>
            <path id="パス_1506_-_アウトライン" data-name="パス 1506 - アウトライン" d="M961.7,79.024a3.8,3.8,0,0,1-2.687-6.487l3.324-3.324a3.8,3.8,0,0,1,5.375,5.375l-3.324,3.324A3.776,3.776,0,0,1,961.7,79.024Zm3.324-9.124a1.987,1.987,0,0,0-1.415.585l-3.324,3.324a2,2,0,0,0,2.829,2.829l3.324-3.324a2,2,0,0,0-1.415-3.414Z" transform="translate(-958.8 -69)"/>
            <path id="パス_1507" data-name="パス 1507" d="M973.951,90.175a2.9,2.9,0,0,1-4.1-4.1l3.324-3.324a2.9,2.9,0,1,1,4.1,4.1Z" transform="translate(-961.786 -72.776)" fill="#fff"/>
            <path id="パス_1507_-_アウトライン" data-name="パス 1507 - アウトライン" d="M971.9,91.924a3.8,3.8,0,0,1-2.687-6.487l3.324-3.324a3.8,3.8,0,0,1,5.375,5.375l-3.324,3.324A3.776,3.776,0,0,1,971.9,91.924Zm3.324-9.124a1.987,1.987,0,0,0-1.415.585l-3.324,3.324a2,2,0,0,0,2.829,2.829l3.324-3.324a2,2,0,0,0-1.415-3.414Z" transform="translate(-961.786 -72.776)"/>
            <path id="パス_1508" data-name="パス 1508" d="M966.951,84.873a2.9,2.9,0,0,1-4.1-4.1l5.022-5.022a2.9,2.9,0,1,1,4.1,4.1Z" transform="translate(-959.737 -70.727)" fill="#fff"/>
            <path id="パス_1508_-_アウトライン" data-name="パス 1508 - アウトライン" d="M964.9,86.621a3.8,3.8,0,0,1-2.687-6.487l5.022-5.022a3.8,3.8,0,0,1,5.375,5.375l-5.022,5.022A3.775,3.775,0,0,1,964.9,86.621ZM969.921,75.8a1.987,1.987,0,0,0-1.415.585l-5.022,5.022a2,2,0,0,0,2.829,2.829l5.022-5.022a2,2,0,0,0-1.415-3.414Z" transform="translate(-959.737 -70.727)"/>
          </g>
          <path id="線_480" data-name="線 480" d="M0,8.539a.9.9,0,0,1-.636-.264A.9.9,0,0,1-.636,7L7-.636a.9.9,0,0,1,1.273,0,.9.9,0,0,1,0,1.273L.636,8.275A.9.9,0,0,1,0,8.539Z" transform="translate(49.155 17.54)"/>
          <path id="線_481" data-name="線 481" d="M13.226,14.126a.9.9,0,0,1-.636-.264L-.636.636a.9.9,0,0,1,0-1.273.9.9,0,0,1,1.273,0L13.862,12.59a.9.9,0,0,1-.636,1.536Z" transform="translate(42.861 5.305)"/>
          <path id="パス_1509" data-name="パス 1509" d="M972.2,56.051l6.507-6.507A4.665,4.665,0,0,1,981.96,48.2h6.578" transform="translate(-950.275 -40.349)" fill="rgba(0,0,0,0)"/>
          <path id="パス_1509_-_アウトライン" data-name="パス 1509 - アウトライン" d="M972.2,59.051a3,3,0,0,1-2.121-5.121l6.507-6.507A7.652,7.652,0,0,1,981.96,45.2h6.578a3,3,0,0,1,0,6H981.96a1.656,1.656,0,0,0-1.132.465l-6.507,6.507A2.991,2.991,0,0,1,972.2,59.051Z" transform="translate(-950.275 -40.349)" fill="#fff"/>
          <path id="線_482" data-name="線 482" d="M10.892,13.892a2.991,2.991,0,0,1-2.121-.879L-2.121,2.121a3,3,0,0,1,0-4.243,3,3,0,0,1,4.243,0L13.013,8.771a3,3,0,0,1-2.121,5.121Z" transform="translate(39.819 15.843)" fill="#fff"/>
          <path id="パス_1510" data-name="パス 1510" d="M994.276,66.908l2.334,2.334a2.971,2.971,0,0,0,4.1.141,2.925,2.925,0,0,0,.071-4.173L989.89,54.319a4.541,4.541,0,0,0-3.253-1.344h-5.3l-2.4,2.4a5.747,5.747,0,0,1-6.578,1.132,1.446,1.446,0,0,1-.424-2.334l6.507-6.507a4.665,4.665,0,0,1,3.253-1.344h6.578a4.927,4.927,0,0,0,3.466-1.415l3.183-3.112" transform="translate(-950.071 -38.476)" fill="rgba(0,0,0,0)"/>
          <path id="パス_1510_-_アウトライン" data-name="パス 1510 - アウトライン" d="M998.741,71.037l-.139,0a3.912,3.912,0,0,1-2.628-1.156l-2.334-2.334a.9.9,0,1,1,1.273-1.273l2.334,2.334a2.076,2.076,0,0,0,2.86.112,2.026,2.026,0,0,0,.041-2.871L989.254,54.955a3.626,3.626,0,0,0-2.617-1.08h-4.932l-2.141,2.141a6.692,6.692,0,0,1-3.643,1.878,6.44,6.44,0,0,1-3.962-.572,2.346,2.346,0,0,1-.67-3.781l6.507-6.507a5.538,5.538,0,0,1,3.89-1.607h6.578a4.019,4.019,0,0,0,2.829-1.151l.007-.007,3.183-3.112a.9.9,0,0,1,1.258,1.287l-3.179,3.109a5.832,5.832,0,0,1-4.1,1.674h-6.578a3.776,3.776,0,0,0-2.617,1.08l-6.507,6.507a.535.535,0,0,0-.149.476.548.548,0,0,0,.314.4l.025.012a4.864,4.864,0,0,0,5.539-.963l2.4-2.4a.9.9,0,0,1,.636-.264h5.3a5.463,5.463,0,0,1,3.89,1.607l10.892,10.892a3.819,3.819,0,0,1,1.1,2.747,3.778,3.778,0,0,1-1.194,2.718l-.021.019A3.869,3.869,0,0,1,998.741,71.037Z" transform="translate(-950.071 -38.476)"/>
          <path id="パス_1511" data-name="パス 1511" d="M1022.42,55.418l-4.1,4.1L1000,41.2l4.1-4.1" transform="translate(-958.412 -37.1)" fill="#fff"/>
          <path id="パス_1511_-_アウトライン" data-name="パス 1511 - アウトライン" d="M1018.318,60.42a.9.9,0,0,1-.636-.264L999.364,41.839a.9.9,0,0,1,0-1.273l4.1-4.1a.9.9,0,1,1,1.273,1.273l-3.466,3.466,17.046,17.046,3.466-3.466a.9.9,0,1,1,1.273,1.273l-4.1,4.1A.9.9,0,0,1,1018.318,60.42Z" transform="translate(-958.412 -37.1)"/>
        </g>
      </g>
    </g>
  </g>
</svg>
