<svg xmlns="http://www.w3.org/2000/svg" width="20.969" height="20.972" viewBox="0 0 20.969 20.972">
  <g id="鉛筆アイコン_5" data-name="鉛筆アイコン　5" transform="translate(0.384 0.399)">
    <path id="パス_6720" data-name="パス 6720" d="M19.719,2.8,17.386.469a1.6,1.6,0,0,0-2.261,0L13.613,1.981,2.27,13.325a2.939,2.939,0,0,0-.687,1.083l-1.5,4.168A1.193,1.193,0,0,0,1.612,20.1L5.78,18.6a2.944,2.944,0,0,0,1.084-.687L17.812,6.969h0l.4-.4,1.511-1.512h0A1.6,1.6,0,0,0,19.719,2.8ZM5.4,17.552l-2.655.955L1.682,17.442l.954-2.655c.007-.019.016-.038.024-.057l2.8,2.8C5.439,17.536,5.421,17.545,5.4,17.552Zm.671-.425c-.038.038-.078.072-.119.106l-3-3c.034-.04.069-.081.106-.118L14.349,2.827,17.36,5.838ZM18.927,4.271,17.812,5.387l-.056.056L14.744,2.431l1.172-1.172a.481.481,0,0,1,.679,0l2.332,2.331A.48.48,0,0,1,18.927,4.271Z" transform="translate(0 0)" fill="#fff"/>
    <path id="パス_6720_-_アウトライン" data-name="パス 6720 - アウトライン" d="M16.255-.4h0a1.987,1.987,0,0,1,1.414.586L20,2.518a2,2,0,0,1,0,2.826l-.056.056-2.1,2.1h0L7.146,18.2a3.365,3.365,0,0,1-1.231.781l-4.168,1.5A1.593,1.593,0,0,1-.291,18.441l1.5-4.168a3.361,3.361,0,0,1,.781-1.231L14.842.186A1.985,1.985,0,0,1,16.255-.4Zm3.2,5.162a1.2,1.2,0,0,0-.016-1.679L17.1.752a1.2,1.2,0,0,0-1.7,0L2.553,13.608a2.556,2.556,0,0,0-.594.936l-1.5,4.168a.793.793,0,0,0,1.015,1.015l4.167-1.5a2.559,2.559,0,0,0,.936-.594l11.2-11.2h0ZM16.255.719a.877.877,0,0,1,.622.257l2.333,2.332a.883.883,0,0,1,0,1.244L17.926,5.838h0L6.355,17.409c-.049.049-.1.091-.144.13l-.1.08.048.048-.209.087-.024.02-.007-.007L5.6,17.9c-.022.01-.044.019-.066.027L2.643,18.969,1.22,17.545l1.042-2.9c.007-.017.014-.034.021-.052l.006-.013.128-.318,0,0,.013-.016.09-.222.053.053.081-.1c.039-.046.081-.1.13-.144l11.4-11.4h0L15.633.976A.875.875,0,0,1,16.255.719Zm1.5,4.158.889-.889a.08.08,0,0,0,0-.114L16.313,1.543a.08.08,0,0,0-.057-.024.079.079,0,0,0-.057.023l-.889.889Zm-.961.961L14.349,3.392,3.514,14.228,5.96,16.673ZM4.732,17.368,2.82,15.456l-.676,1.882.706.706Z" transform="translate(0 0)" fill="#fff"/>
  </g>
</svg>
