<svg xmlns="http://www.w3.org/2000/svg" width="15.5" height="19.359" viewBox="0 0 15.5 19.359">
  <g id="グループ_8851" data-name="グループ 8851" transform="translate(-429.363 -3702.82)">
    <g id="白紙の書類ファイルアイコン" transform="translate(376.045 3703.32)">
      <path id="パス_6719" data-name="パス 6719" d="M66.648,0H59.876a1.835,1.835,0,0,0-1.3.537L54.355,4.762a1.833,1.833,0,0,0-.537,1.3V16.69a1.672,1.672,0,0,0,1.67,1.669H66.648a1.671,1.671,0,0,0,1.669-1.669V1.669A1.671,1.671,0,0,0,66.648,0ZM59.284,1.16V4.913c0,.406-.158.564-.564.564H54.968Zm8.1,15.53a.731.731,0,0,1-.731.731H55.488a.731.731,0,0,1-.731-.731V6.311h4.466a.9.9,0,0,0,.9-.9V.939h6.53a.731.731,0,0,1,.731.73Z" transform="translate(0)" fill="#fff"/>
      <path id="パス_6719_-_アウトライン" data-name="パス 6719 - アウトライン" d="M59.876-.5h6.773a2.171,2.171,0,0,1,2.169,2.169V16.69a2.172,2.172,0,0,1-2.169,2.169H55.488a2.172,2.172,0,0,1-2.17-2.169V6.058A2.317,2.317,0,0,1,54,4.408L58.226.183A2.351,2.351,0,0,1,59.876-.5Zm6.773,17.421a.231.231,0,0,0,.23-.23V1.669a.231.231,0,0,0-.23-.23h-6.03V5.415a1.4,1.4,0,0,1-1.4,1.4H55.257V16.69a.231.231,0,0,0,.231.23ZM58.782,4.974c0-.016,0-.037,0-.062V2.367L56.175,4.976H58.72Z" transform="translate(0)" fill="#fff"/>
    </g>
    <path id="線_1758" data-name="線 1758" d="M7,.5H0A.5.5,0,0,1-.5,0,.5.5,0,0,1,0-.5H7a.5.5,0,0,1,.5.5A.5.5,0,0,1,7,.5Z" transform="translate(433.5 3716.5)" fill="#feffff"/>
    <path id="線_1759" data-name="線 1759" d="M7,.5H0A.5.5,0,0,1-.5,0,.5.5,0,0,1,0-.5H7a.5.5,0,0,1,.5.5A.5.5,0,0,1,7,.5Z" transform="translate(433.5 3713.5)" fill="#feffff"/>
  </g>
</svg>
