<svg xmlns="http://www.w3.org/2000/svg" width="45.928" height="45.928" viewBox="0 0 45.928 45.928">
  <g id="グループ_11818" data-name="グループ 11818" transform="translate(-933.536 -2782.536)">
    <g id="コンポーネント_125_4" data-name="コンポーネント 125 – 4" transform="translate(933.536 2782.536)">
      <g id="グループ_11815" data-name="グループ 11815" transform="translate(-9.535 -9.534)">
        <path id="パス_6697" data-name="パス 6697" d="M22.964,0A22.964,22.964,0,1,1,0,22.964,22.964,22.964,0,0,1,22.964,0Z" transform="translate(9.535 9.534)" fill="#13987f"/>
      </g>
    </g>
    <g id="グループ_11776" data-name="グループ 11776">
      <g id="グループ_11773" data-name="グループ 11773" transform="translate(942.846 2793.887)">
        <circle id="楕円形_529" data-name="楕円形 529" cx="11.614" cy="11.614" r="11.614" fill="#fff"/>
        <g id="グループ_11772" data-name="グループ 11772" transform="translate(1.638 2.977)">
          <circle id="楕円形_530" data-name="楕円形 530" cx="3.144" cy="3.144" r="3.144" transform="translate(5.359)" fill="#13987f"/>
          <circle id="楕円形_531" data-name="楕円形 531" cx="3.144" cy="3.144" r="3.144" transform="matrix(0.966, -0.259, 0.259, 0.966, 0, 6.668)" fill="#13987f"/>
          <circle id="楕円形_532" data-name="楕円形 532" cx="3.144" cy="3.144" r="3.144" transform="matrix(0.966, -0.259, 0.259, 0.966, 4.029, 12.866)" fill="#13987f"/>
          <circle id="楕円形_533" data-name="楕円形 533" cx="3.144" cy="3.144" r="3.144" transform="matrix(0.966, -0.259, 0.259, 0.966, 11.168, 10.952)" fill="#13987f"/>
          <circle id="楕円形_534" data-name="楕円形 534" cx="3.144" cy="3.144" r="3.144" transform="matrix(0.966, -0.259, 0.259, 0.966, 11.556, 3.571)" fill="#13987f"/>
        </g>
      </g>
      <path id="パス_9711" data-name="パス 9711" d="M19.364,12.214a1.5,1.5,0,0,1-.529-2.9L21.727,8.22a1.5,1.5,0,1,1,1.058,2.807l-2.892,1.089A1.5,1.5,0,0,1,19.364,12.214Z" transform="matrix(0.819, 0.574, -0.574, 0.819, 955.659, 2788.988)" fill="#fff"/>
      <path id="パス_9712" data-name="パス 9712" d="M-8257.913,1236.544a1,1,0,0,1-.942-.664l-2.8-7.849a1,1,0,0,1,.606-1.278,1,1,0,0,1,1.278.606l2.8,7.849a1,1,0,0,1-.606,1.278A1,1,0,0,1-8257.913,1236.544Z" transform="matrix(0.616, 0.788, -0.788, 0.616, 7026.043, 8555.519)" fill="#fff"/>
    </g>
  </g>
</svg>
