<svg xmlns="http://www.w3.org/2000/svg" width="45.928" height="45.928" viewBox="0 0 45.928 45.928">
  <g id="グループ_11824" data-name="グループ 11824" transform="translate(-933.536 -2972.534)">
    <g id="コンポーネント_125_11" data-name="コンポーネント 125 – 11" transform="translate(933.536 2972.534)">
      <g id="グループ_11815" data-name="グループ 11815" transform="translate(-9.535 -9.534)">
        <path id="パス_6697" data-name="パス 6697" d="M22.964,0A22.964,22.964,0,1,1,0,22.964,22.964,22.964,0,0,1,22.964,0Z" transform="translate(9.535 9.534)" fill="#13987f"/>
      </g>
    </g>
    <g id="_0PEApi.tif" data-name="0PEApi.tif" transform="translate(946.057 2983.782)">
      <g id="グループ_11779" data-name="グループ 11779" transform="translate(0 0)">
        <path id="パス_9718" data-name="パス 9718" d="M11.288,72.264c-.4.179-.772.346-1.144.518-.5.23-.988.469-1.489.692A2.572,2.572,0,0,0,7.163,75.1a20.265,20.265,0,0,0-.633,2.773c-.256,1.719-.438,3.449-.645,5.174-.02.163-.042.265-.246.264-1.816-.007-3.632,0-5.448,0A1.319,1.319,0,0,1,0,83.28c.1-.617.19-1.223.286-1.828q.9-5.635,1.8-11.271a3.238,3.238,0,0,1,.89-1.835,1.966,1.966,0,0,1,2.478-.382,6.61,6.61,0,0,1,.957.638,2.219,2.219,0,0,0,2.219.4,7.356,7.356,0,0,1,.746-.218.256.256,0,0,1,.223.081c.566,1.122,1.121,2.249,1.692,3.4Z" transform="translate(0 -59.879)" fill="#fff"/>
        <path id="パス_9719" data-name="パス 9719" d="M95.033,33.84a4.938,4.938,0,0,1,5.073,4.479,4.883,4.883,0,0,1-4.2,5.24l-.114.016c-.972.129-1.053.09-1.479-.77-1.046-2.107-2.087-4.218-3.139-6.323a.419.419,0,0,1,.038-.495,4.78,4.78,0,0,1,3.818-2.147Z" transform="translate(-80.604 -29.937)" fill="#fff"/>
        <path id="パス_9720" data-name="パス 9720" d="M105.768,8.935a8.98,8.98,0,0,1-5.525,8.013,1.822,1.822,0,0,1-.758.119.92.92,0,0,1-.817-.776.957.957,0,0,1,.483-1.023,3.508,3.508,0,0,1,.37-.159,6.84,6.84,0,0,0-1.8-13.116,6.721,6.721,0,0,0-2.957.307c-.164.055-.326.114-.493.16a.971.971,0,0,1-1.2-.622A.954.954,0,0,1,93.625.631,8.509,8.509,0,0,1,97.377.018a8.773,8.773,0,0,1,4.234,1.362A8.5,8.5,0,0,1,105.464,6.8c.159.7.205,1.421.3,2.133Z" transform="translate(-82.284 0)" fill="#fff"/>
      </g>
    </g>
  </g>
</svg>
