<svg xmlns="http://www.w3.org/2000/svg" width="45.928" height="45.928" viewBox="0 0 45.928 45.928">
  <g id="グループ_11822" data-name="グループ 11822" transform="translate(-179.535 -2972.534)">
    <g id="コンポーネント_125_9" data-name="コンポーネント 125 – 9" transform="translate(179.535 2972.534)">
      <g id="グループ_11815" data-name="グループ 11815" transform="translate(-9.535 -9.534)">
        <path id="パス_6697" data-name="パス 6697" d="M22.964,0A22.964,22.964,0,1,1,0,22.964,22.964,22.964,0,0,1,22.964,0Z" transform="translate(9.535 9.534)" fill="#13987f"/>
      </g>
    </g>
    <g id="YXObhQ.tif" transform="translate(192.965 2985.874)">
      <g id="グループ_11777" data-name="グループ 11777" transform="translate(0.001 0.002)">
        <path id="パス_9713" data-name="パス 9713" d="M6.417,9.069V8.786c0-.656,0-1.311,0-1.966,0-.324-.078-.4-.4-.4q-2.029,0-4.059,0a1.792,1.792,0,0,1-1.711-1A2.158,2.158,0,0,1,.021,4.53C-.009,3.656,0,2.781.012,1.908A1.848,1.848,0,0,1,1.918.013c1.252-.01,2.5-.019,3.757,0a7.191,7.191,0,0,1,7.148,7.134c.011.571,0,1.143,0,1.714,0,.066-.011.13-.018.206H6.416Z" transform="translate(-0.001 -0.002)" fill="#fff"/>
        <path id="パス_9714" data-name="パス 9714" d="M63.609,105.992H70c.005.095.014.184.014.271,0,.471,0,.941,0,1.412,0,.38.062.443.437.443,1.329,0,2.656-.013,3.985.01a2.4,2.4,0,0,1,.969.213,1.709,1.709,0,0,1,1.008,1.573c.024.94.026,1.883,0,2.824a1.814,1.814,0,0,1-1.782,1.778c-1.4.024-2.792.053-4.185-.01a7.178,7.178,0,0,1-6.834-7.028c-.011-.485,0-.971,0-1.488Z" transform="translate(-57.189 -95.298)" fill="#fff"/>
      </g>
    </g>
  </g>
</svg>
