<svg xmlns="http://www.w3.org/2000/svg" width="45.928" height="45.928" viewBox="0 0 45.928 45.928">
  <g id="グループ_11820" data-name="グループ 11820" transform="translate(-556.535 -2877.534)">
    <g id="コンポーネント_125_7" data-name="コンポーネント 125 – 7" transform="translate(556.535 2877.534)">
      <g id="グループ_11815" data-name="グループ 11815" transform="translate(-9.535 -9.534)">
        <path id="パス_6697" data-name="パス 6697" d="M22.964,0A22.964,22.964,0,1,1,0,22.964,22.964,22.964,0,0,1,22.964,0Z" transform="translate(9.535 9.534)" fill="#13987f"/>
      </g>
    </g>
    <g id="_8d2PJv.tif" data-name="8d2PJv.tif" transform="translate(567.365 2887.385)">
      <g id="グループ_11775" data-name="グループ 11775" transform="translate(-0.002 0.002)">
        <path id="パス_9705" data-name="パス 9705" d="M161.58,158.53c.079.065.152.115.214.176q2.295,2.251,4.586,4.5,2.537,2.492,5.07,4.988a1.341,1.341,0,0,1,.229.339q.7,1.354,1.385,2.713a.329.329,0,0,1,.05.113,2.375,2.375,0,0,1,0,.243c-.079-.021-.178-.017-.231-.066-.241-.218-.468-.45-.7-.678l-9.211-9.054-2.158-2.121c-.189-.187-.189-.229,0-.421s.4-.4.6-.6a1.827,1.827,0,0,1,.173-.133Z" transform="translate(-147.339 -145.379)" fill="#fff"/>
        <path id="パス_9706" data-name="パス 9706" d="M46.376,42.788a1.454,1.454,0,0,1-.126.178q-1.6,1.626-3.195,3.25c-.152.154-.219.146-.368-.032Q41.348,44.59,40.008,43a.22.22,0,0,1,.01-.353q1.3-1.31,2.585-2.632c.126-.129.221-.146.367-.028,1.083.879,2.171,1.752,3.255,2.63A1.333,1.333,0,0,1,46.376,42.788Z" transform="translate(-36.613 -36.593)" fill="#fff"/>
        <path id="パス_9707" data-name="パス 9707" d="M0,4.992a1,1,0,0,1,.346-.754L3.163,1.37c.334-.34.666-.682,1-1.02A1,1,0,0,1,5.658.323c.142.132.28.268.41.411A.989.989,0,0,1,6.052,2.15Q4.118,4.128,2.175,6.1a1,1,0,0,1-1.493.012C.552,5.986.423,5.861.3,5.732A.967.967,0,0,1,0,4.992Z" transform="translate(0.002 -0.002)" fill="#fff"/>
        <path id="パス_9708" data-name="パス 9708" d="M80.614,83.732a1.53,1.53,0,0,1-.233-.125c-.35-.281-.7-.562-1.041-.854-.21-.179-.2-.315.017-.538q1.756-1.789,3.513-3.577c.121-.123.241-.248.366-.367a.278.278,0,0,1,.436,0c.319.363.63.733.938,1.106.127.153.071.3-.055.422l-2.192,2.231q-.748.76-1.5,1.518a1.845,1.845,0,0,1-.251.179Z" transform="translate(-72.619 -71.684)" fill="#fff"/>
        <path id="パス_9709" data-name="パス 9709" d="M115.986,116.383a1.9,1.9,0,0,1-.242-.11q-1.223-.8-2.442-1.6c-.195-.129-.2-.2-.027-.373l2.325-2.365c.209-.213.261-.21.424.028q.8,1.173,1.6,2.348c.166.244.16.321-.036.523q-.681.7-1.366,1.388a1.658,1.658,0,0,1-.231.163Z" transform="translate(-103.765 -102.505)" fill="#fff"/>
      </g>
    </g>
  </g>
</svg>
