<svg xmlns="http://www.w3.org/2000/svg" width="45.928" height="45.928" viewBox="0 0 45.928 45.928">
  <g id="グループ_11816" data-name="グループ 11816" transform="translate(-179.535 -2782.536)">
    <g id="コンポーネント_125_3" data-name="コンポーネント 125 – 3" transform="translate(179.535 2782.536)">
      <g id="グループ_11815" data-name="グループ 11815" transform="translate(-9.535 -9.534)">
        <path id="パス_6697" data-name="パス 6697" d="M22.964,0A22.964,22.964,0,1,1,0,22.964,22.964,22.964,0,0,1,22.964,0Z" transform="translate(9.535 9.534)" fill="#13987f"/>
      </g>
    </g>
    <g id="グループ_11771" data-name="グループ 11771" transform="translate(198.196 2793.898)">
      <path id="パス_9698" data-name="パス 9698" d="M6.239,40.062h0A2.259,2.259,0,0,1,4,37.823V27.239A2.259,2.259,0,0,1,6.239,25h0a2.259,2.259,0,0,1,2.239,2.239V37.823A2.259,2.259,0,0,1,6.239,40.062Z" transform="translate(-2.372 -14.823)" fill="#fff"/>
      <path id="パス_9699" data-name="パス 9699" d="M3.46,6.92H6.513a.385.385,0,0,0,.407-.407V.407A.385.385,0,0,0,6.513,0H3.46A3.457,3.457,0,0,0,0,3.46H0A3.457,3.457,0,0,0,3.46,6.92Z" fill="#fff"/>
      <path id="線_1780" data-name="線 1780" d="M1,6.513H-1V0H1Z" transform="translate(3.867 5.496)" fill="#fff"/>
      <path id="線_1781" data-name="線 1781" d="M6.513,1H0A1,1,0,0,1-1,0,1,1,0,0,1,0-1H6.513a1,1,0,0,1,1,1A1,1,0,0,1,6.513,1Z" transform="translate(3.867 3.46)" fill="#fff"/>
    </g>
  </g>
</svg>
