<svg xmlns="http://www.w3.org/2000/svg" width="45.928" height="45.928" viewBox="0 0 45.928 45.928">
  <g id="グループ_11821" data-name="グループ 11821" transform="translate(-933.536 -2877.534)">
    <g id="コンポーネント_125_8" data-name="コンポーネント 125 – 8" transform="translate(933.536 2877.534)">
      <g id="グループ_11815" data-name="グループ 11815" transform="translate(-9.535 -9.534)">
        <path id="パス_6697" data-name="パス 6697" d="M22.964,0A22.964,22.964,0,1,1,0,22.964,22.964,22.964,0,0,1,22.964,0Z" transform="translate(9.535 9.534)" fill="#13987f"/>
      </g>
    </g>
    <g id="UdGly0.tif" transform="translate(945.02 2889.074)">
      <path id="パス_9710" data-name="パス 9710" d="M11.392,22.844A16.451,16.451,0,0,1,3.023,20.62,5.567,5.567,0,0,1,.259,17.343a7.428,7.428,0,0,1-.133-3.234A14.451,14.451,0,0,1,2.716,8.116a20.851,20.851,0,0,1,7.618-6.727A12.193,12.193,0,0,1,14.8.035a5.648,5.648,0,0,1,5.8,2.929A16.623,16.623,0,0,1,22.861,11a11.877,11.877,0,0,1-1.323,6.162,10.5,10.5,0,0,1-8.208,5.572c-.365.053-.734.084-1.1.105-.278.017-.558,0-.837,0Zm7.621-17.36c0-.12,0-.24,0-.359a3.083,3.083,0,0,0-2.935-3.189,7.129,7.129,0,0,0-3.623.6,18.235,18.235,0,0,0-9.771,9.548,7.942,7.942,0,0,0-.776,3.6A3.271,3.271,0,0,0,3,18.243,3.51,3.51,0,0,0,5.162,19a7.7,7.7,0,0,0,3.352-.642,18.339,18.339,0,0,0,9.4-8.814,9.183,9.183,0,0,0,1.1-4.065Zm1.592,2.6A20.517,20.517,0,0,1,8.166,20.571c.046.013.12.037.2.054a12.683,12.683,0,0,0,5.139.166,8.547,8.547,0,0,0,6.687-5.207A10.918,10.918,0,0,0,20.9,9.947c-.066-.611-.189-1.217-.292-1.861Z" transform="translate(0 0)" fill="#fff"/>
    </g>
  </g>
</svg>
