<svg xmlns="http://www.w3.org/2000/svg" width="45.928" height="45.928" viewBox="0 0 45.928 45.928">
  <g id="グループ_11823" data-name="グループ 11823" transform="translate(-556.535 -2972.534)">
    <g id="コンポーネント_125_10" data-name="コンポーネント 125 – 10" transform="translate(556.535 2972.534)">
      <g id="グループ_11815" data-name="グループ 11815" transform="translate(-9.535 -9.534)">
        <path id="パス_6697" data-name="パス 6697" d="M22.964,0A22.964,22.964,0,1,1,0,22.964,22.964,22.964,0,0,1,22.964,0Z" transform="translate(9.535 9.534)" fill="#13987f"/>
      </g>
    </g>
    <g id="a30Bs6.tif" transform="translate(567.981 2984.443)">
      <g id="グループ_11778" data-name="グループ 11778" transform="translate(0.001 0.002)">
        <path id="パス_9715" data-name="パス 9715" d="M22.038,72.713c-.416-.168-.84-.321-1.247-.508a7.625,7.625,0,0,1-3.878-3.471,6.986,6.986,0,0,1-.175-6.426,4.232,4.232,0,0,1,6.333-1.616c.021.015.045.026.082.048a.781.781,0,0,0,.115-.086,4.931,4.931,0,0,1,4.2-1.636,8.511,8.511,0,0,1,5.417,2.237,9.561,9.561,0,0,1,2.243,3.43,20.369,20.369,0,0,1,1.292,6.825c.02.47.016.942.037,1.411a.422.422,0,0,1-.205.41,8.592,8.592,0,0,1-4.4,1.572,10.774,10.774,0,0,1-5.582-.946,6.927,6.927,0,0,1-3.963-5.79c-.014-.112-.015-.226-.024-.339a.878.878,0,0,0-.933-.854.84.84,0,0,0-.816.956,20.217,20.217,0,0,0,.423,2.279,7.893,7.893,0,0,0,1.023,2.252c.037.059.07.118.1.177l-.04.071Z" transform="translate(-14.36 -52.825)" fill="#fff"/>
        <path id="パス_9716" data-name="パス 9716" d="M120.991,7.793a10.136,10.136,0,0,0-6.9-3.029l.733-.813c-.69-.724-1.38-1.446-2.091-2.19a4.419,4.419,0,0,1,.367-.345q.794-.593,1.6-1.171a.584.584,0,0,1,.7.005,12.034,12.034,0,0,1,2.62,2.148c.066.069.132.14.2.208a.325.325,0,0,0,.071.033c.138-.126.285-.258.43-.392.615-.567,1.227-1.137,1.85-1.7a.391.391,0,0,1,.311-.1,3.593,3.593,0,0,1,1.948,1.5.251.251,0,0,1-.049.377c-.884.865-1.754,1.745-2.635,2.614a.272.272,0,0,0-.055.358c.3.742.574,1.492.856,2.241A1.631,1.631,0,0,1,120.991,7.793Z" transform="translate(-100.937 -0.119)" fill="#fff"/>
        <path id="パス_9717" data-name="パス 9717" d="M3.8,1.644c.441-.5.875-.976,1.285-1.471a.306.306,0,0,1,.438-.1A2.828,2.828,0,0,1,6.955,1.461a.446.446,0,0,1-.047.484c-.46.677-.9,1.367-1.363,2.042a.329.329,0,0,0,.012.456c.25.333.478.681.748,1.068A5.8,5.8,0,0,0,2.768,6.666c-.061-.1-.111-.177-.157-.257C1.765,4.926.922,3.442.069,1.964a.354.354,0,0,1,.022-.445,3.716,3.716,0,0,1,2.28-1.5.3.3,0,0,1,.368.14c.287.426.589.842.886,1.262C3.674,1.489,3.729,1.554,3.8,1.644Z" transform="translate(-0.001 -0.002)" fill="#fff"/>
      </g>
    </g>
  </g>
</svg>
