<svg xmlns="http://www.w3.org/2000/svg" width="45.928" height="45.928" viewBox="0 0 45.928 45.928">
  <g id="グループ_11819" data-name="グループ 11819" transform="translate(-179.535 -2877.534)">
    <g id="コンポーネント_125_6" data-name="コンポーネント 125 – 6" transform="translate(179.535 2877.534)">
      <g id="グループ_11815" data-name="グループ 11815" transform="translate(-9.535 -9.534)">
        <path id="パス_6697" data-name="パス 6697" d="M22.964,0A22.964,22.964,0,1,1,0,22.964,22.964,22.964,0,0,1,22.964,0Z" transform="translate(9.535 9.534)" fill="#13987f"/>
      </g>
    </g>
    <g id="_9T6HvS.tif" data-name="9T6HvS.tif" transform="translate(190.876 2888.165)">
      <g id="グループ_11774" data-name="グループ 11774" transform="translate(-0.009 -0.002)">
        <path id="パス_9701" data-name="パス 9701" d="M49.292,13.818c-.809,0-1.024-.148-1.32-.913-.15-.389-.291-.782-.458-1.164a.553.553,0,0,0-.261-.269,5.847,5.847,0,0,1-3.716-4.343c-.048-.21-.172-.216-.329-.244a.968.968,0,0,1-.8-.972.94.94,0,0,1,.813-.951c.224-.027.272-.131.32-.322A5.733,5.733,0,0,1,48.159.125,5.86,5.86,0,0,1,55.08,4.647c.044.2.113.288.327.316a.974.974,0,0,1,0,1.919.337.337,0,0,0-.331.312,5.815,5.815,0,0,1-3.61,4.227.623.623,0,0,0-.4.4c-.122.358-.268.707-.406,1.059C50.348,13.68,50.148,13.817,49.292,13.818Zm1.993-7.889a1.974,1.974,0,1,0-1.971,1.96,1.97,1.97,0,0,0,1.971-1.96Z" transform="translate(-37.466 0.002)" fill="#fff"/>
        <path id="パス_9702" data-name="パス 9702" d="M93.1,83.1H95.08c0,.127,0,.24,0,.353.016.913-.037,1.832.063,2.735a4.429,4.429,0,0,0,8.794-.218c.03-.4.024-.8.024-1.193,0-1.506.006-3.011,0-4.517a1.963,1.963,0,0,0-2.113-2.109c-.583,0-1.164,0-1.812,0,.09-.118.15-.2.21-.275a3.282,3.282,0,0,0,.742-1.528.25.25,0,0,1,.176-.163,5.027,5.027,0,0,1,2.4.326,3.812,3.812,0,0,1,2.354,3.5c.052,1.922.044,3.847,0,5.769a6.4,6.4,0,0,1-12.692.94,22.129,22.129,0,0,1-.127-2.757c-.01-.279,0-.558,0-.866Z" transform="translate(-82.247 -67.295)" fill="#fff"/>
        <path id="パス_9703" data-name="パス 9703" d="M5.829,77.939c-.6,0-1.2,0-1.806,0a1.948,1.948,0,0,0-2.055,2.018c-.015,1.2-.009,2.409,0,3.613,0,.232-.069.3-.3.295-.55-.015-1.1,0-1.678,0V83.53c0-1.185,0-2.369,0-3.554A3.951,3.951,0,0,1,4,75.965c.272,0,.6-.087.8.031.167.1.164.453.281.67.226.424.484.831.745,1.271Z" transform="translate(0.009 -67.085)" fill="#fff"/>
        <path id="パス_9704" data-name="パス 9704" d="M.06,160.907a1.151,1.151,0,0,1,.162-.024c.572,0,1.143,0,1.725,0a.619.619,0,0,1,.042.148c0,1.271.013,2.544,0,3.816a.965.965,0,0,1-1.1.975.941.941,0,0,1-.855-.89c-.019-1.32-.006-2.641,0-3.961,0-.017.015-.035.029-.063Z" transform="translate(-0.02 -142.132)" fill="#fff"/>
      </g>
    </g>
  </g>
</svg>
