<svg xmlns="http://www.w3.org/2000/svg" width="22.883" height="29.844" viewBox="0 0 22.883 29.844">
  <g id="電話の受話器のアイコン素材" transform="translate(-59.712 0)">
    <path id="パス_13" data-name="パス 13" d="M61.758,1.264c-2.051,1.33-2.453,5.487-1.679,8.875a30.6,30.6,0,0,0,4.046,9.511,31.783,31.783,0,0,0,7.034,7.573c2.778,2.089,6.738,3.416,8.788,2.086a10.385,10.385,0,0,0,2.648-2.839l-1.1-1.7L78.464,20.1c-.225-.347-1.637-.03-2.354.376A6.828,6.828,0,0,0,74.251,22.5c-.663.383-1.219,0-2.38-.533-1.427-.656-3.031-2.7-4.308-4.543C66.4,15.5,65.19,13.2,65.172,11.633c-.014-1.278-.136-1.941.484-2.39a6.829,6.829,0,0,0,2.6-.873c.663-.489,1.529-1.649,1.3-2L66.532,1.7,65.43,0A10.386,10.386,0,0,0,61.758,1.264Z" transform="translate(0 0)" fill="#fff"/>
  </g>
</svg>
