<svg xmlns="http://www.w3.org/2000/svg" width="22.936" height="33.747" viewBox="0 0 22.936 33.747">
  <path id="パス_1121" data-name="パス 1121" d="M92.331,38.629c6.252,11.918,13.274,13.144,15.316,12.073l.533-.28L103.4,41.307c-.175.09-.354.181-.534.276-1.646.865-3.291-1.632-5.4-5.648s-3.226-6.788-1.58-7.652c.182-.095.358-.189.531-.281l-4.782-9.117-.533.28C89.061,20.235,86.079,26.712,92.331,38.629Zm18.741,10.277c.789-.414.356-1.321-.093-2.176l-3.213-6.124c-.345-.658-.917-1.03-1.378-.788-.29.152-.964.473-1.834.9l4.773,9.1ZM99.342,26.387c.461-.241.48-.925.135-1.582s-3.211-6.124-3.211-6.124c-.449-.856-.948-1.727-1.737-1.313l-1.745.915,4.773,9.1C98.4,26.912,99.052,26.539,99.342,26.387Z" transform="translate(-88.574 -17.262)"/>
</svg>
