<svg xmlns="http://www.w3.org/2000/svg" width="23.271" height="23.271" viewBox="0 0 23.271 23.271">
  <g id="グループ_11543" data-name="グループ 11543" transform="translate(-210 -616)">
    <path id="楕円形_78" data-name="楕円形 78" d="M11.635,0A11.635,11.635,0,1,1,0,11.635,11.635,11.635,0,0,1,11.635,0Z" transform="translate(210 616)" fill="#13987f"/>
    <g id="グループ_11509" data-name="グループ 11509" transform="translate(215.882 -10.972)">
      <g id="コンポーネント_134_7" data-name="コンポーネント 134 – 7" transform="translate(0 640.814)">
        <circle id="楕円形_79" data-name="楕円形 79" cx="1.17" cy="1.17" r="1.17" fill="#fff"/>
        <path id="合体_2" data-name="合体 2" d="M.948,1.894A.947.947,0,1,1,.948,0h6.19a.947.947,0,0,1,0,1.894Z" transform="translate(3.564 0.223)" fill="#fff"/>
      </g>
      <g id="コンポーネント_134_8" data-name="コンポーネント 134 – 8" transform="translate(0 637.455)">
        <circle id="楕円形_79-2" data-name="楕円形 79" cx="1.17" cy="1.17" r="1.17" fill="#fff"/>
        <path id="合体_2-2" data-name="合体 2" d="M.948,1.894A.947.947,0,1,1,.948,0h6.19a.947.947,0,0,1,0,1.894Z" transform="translate(3.564 0.223)" fill="#fff"/>
      </g>
      <g id="コンポーネント_134_9" data-name="コンポーネント 134 – 9" transform="translate(0 634.096)">
        <circle id="楕円形_79-3" data-name="楕円形 79" cx="1.17" cy="1.17" r="1.17" fill="#fff"/>
        <path id="合体_2-3" data-name="合体 2" d="M.948,1.894A.947.947,0,1,1,.948,0h6.19a.947.947,0,0,1,0,1.894Z" transform="translate(3.564 0.223)" fill="#fff"/>
      </g>
    </g>
  </g>
</svg>
