<svg xmlns="http://www.w3.org/2000/svg" xmlns:xlink="http://www.w3.org/1999/xlink" width="100" height="100" viewBox="0 0 100 100">
  <defs>
    <clipPath id="clip-path">
      <rect id="長方形_23487" data-name="長方形 23487" width="100" height="100" transform="translate(1093.061 3815.371)" fill="#eee"/>
    </clipPath>
  </defs>
  <g id="マスクグループ_68" data-name="マスクグループ 68" transform="translate(-1093.061 -3815.371)" clip-path="url(#clip-path)">
    <g id="授業風景のアイコン" transform="translate(1102.756 3828.819)">
      <path id="パス_9686" data-name="パス 9686" d="M14.315,19.664A6.614,6.614,0,1,0,7.7,13.05,6.614,6.614,0,0,0,14.315,19.664Z" transform="translate(-1.493 0)" fill="#13987f"/>
      <path id="パス_9687" data-name="パス 9687" d="M35.292,43.762a2.969,2.969,0,0,0-.04-.393l9.879-7.17a1.393,1.393,0,1,0-1.637-2.255l-9.9,7.185a2.887,2.887,0,0,0-1.2-.268H27.011L25.7,33.426c-.717-3.749-2.222-6.693-5.427-6.693H6.691C3.487,26.733,0,30.22,0,33.426V55.656a2.9,2.9,0,0,0,2.9,2.9H4.926l1.1,18.959A3.088,3.088,0,0,0,9.117,80.6h6.176a3.087,3.087,0,0,0,3.087-3.087L19.83,39.964H19.9l.83,3.663a3.591,3.591,0,0,0,3.546,3.035h8.113A2.9,2.9,0,0,0,35.292,43.762ZM10.71,39.641V29.073h3.8V39.641l-2.018,2.38Z" transform="translate(0 -3.936)" fill="#13987f"/>
      <path id="パス_9688" data-name="パス 9688" d="M37.173,9.271V33.422h3.8V13.07H84.018v36.3H40.971V44.8h-3.8v8.367H87.817V9.271Z" transform="translate(-7.208 -0.55)" fill="#13987f"/>
      <path id="パス_9689" data-name="パス 9689" d="M58.323,74.609a5.358,5.358,0,1,0-5.357,5.357A5.357,5.357,0,0,0,58.323,74.609Z" transform="translate(-9.232 -12.181)" fill="#13987f"/>
      <path id="パス_9690" data-name="パス 9690" d="M52.255,86.1a8.878,8.878,0,0,0-8.31,6.014h16.62A8.878,8.878,0,0,0,52.255,86.1Z" transform="translate(-8.522 -15.449)" fill="#13987f"/>
      <path id="パス_9691" data-name="パス 9691" d="M86.987,74.609a5.358,5.358,0,1,0-5.357,5.357A5.357,5.357,0,0,0,86.987,74.609Z" transform="translate(-14.79 -12.181)" fill="#13987f"/>
      <path id="パス_9692" data-name="パス 9692" d="M80.92,86.1a8.879,8.879,0,0,0-8.31,6.014H89.23A8.878,8.878,0,0,0,80.92,86.1Z" transform="translate(-14.08 -15.449)" fill="#13987f"/>
    </g>
  </g>
</svg>
