<svg xmlns="http://www.w3.org/2000/svg" width="45.928" height="45.928"><g data-name="グループ 11821"><g data-name="コンポーネント 125 – 8"><g data-name="グループ 11815"><path data-name="パス 6697" d="M22.964 0A22.964 22.964 0 110 22.964 22.964 22.964 0 0122.964 0z" fill="#13987f"/></g></g><path data-name="パス 9710" d="M22.876 34.384a16.451 16.451 0 01-8.369-2.224 5.567 5.567 0 01-2.764-3.277 7.428 7.428 0 01-.133-3.234 14.451 14.451 0 012.59-5.993 20.851 20.851 0 017.618-6.727 12.193 12.193 0 014.466-1.354 5.648 5.648 0 015.8 2.929 16.623 16.623 0 012.261 8.036 11.877 11.877 0 01-1.323 6.162 10.5 10.5 0 01-8.208 5.572c-.365.053-.734.084-1.1.105-.278.017-.558 0-.837 0zm7.621-17.36v-.359a3.083 3.083 0 00-2.935-3.189 7.129 7.129 0 00-3.623.6 18.235 18.235 0 00-9.771 9.548 7.942 7.942 0 00-.776 3.6 3.271 3.271 0 001.092 2.559 3.51 3.51 0 002.162.757 7.7 7.7 0 003.352-.642 18.339 18.339 0 009.4-8.814 9.183 9.183 0 001.1-4.065zm1.592 2.6A20.517 20.517 0 0119.65 32.111c.046.013.12.037.2.054a12.683 12.683 0 005.139.166 8.547 8.547 0 006.687-5.207 10.918 10.918 0 00.708-5.637c-.066-.611-.189-1.217-.292-1.861z" fill="#fff"/></g></svg>