<svg xmlns="http://www.w3.org/2000/svg" width="45.928" height="45.928"><g data-name="グループ 11823"><g data-name="コンポーネント 125 – 10"><g data-name="グループ 11815"><path data-name="パス 6697" d="M22.964 0A22.964 22.964 0 110 22.964 22.964 22.964 0 0122.964 0z" fill="#13987f"/></g></g><g data-name="グループ 11778" fill="#fff"><path data-name="パス 9715" d="M19.125 31.799c-.416-.168-.84-.321-1.247-.508A7.625 7.625 0 0114 27.82a6.986 6.986 0 01-.175-6.426 4.232 4.232 0 016.333-1.616c.021.015.045.026.082.048a.781.781 0 00.115-.086 4.931 4.931 0 014.2-1.636 8.511 8.511 0 015.417 2.237 9.561 9.561 0 012.243 3.43 20.369 20.369 0 011.292 6.825c.02.47.016.942.037 1.411a.422.422 0 01-.205.41 8.592 8.592 0 01-4.4 1.572 10.774 10.774 0 01-5.582-.946 6.927 6.927 0 01-3.963-5.79c-.014-.112-.015-.226-.024-.339a.878.878 0 00-.933-.854.84.84 0 00-.816.956 20.217 20.217 0 00.423 2.279 7.893 7.893 0 001.023 2.252c.037.059.07.118.1.177l-.04.071z"/><path data-name="パス 9716" d="M31.501 19.585a10.136 10.136 0 00-6.9-3.029l.733-.813-2.091-2.19a4.419 4.419 0 01.367-.345q.794-.593 1.6-1.171a.584.584 0 01.7.005 12.034 12.034 0 012.62 2.148c.066.069.132.14.2.208a.325.325 0 00.071.033c.138-.126.285-.258.43-.392.615-.567 1.227-1.137 1.85-1.7a.391.391 0 01.311-.1 3.593 3.593 0 011.948 1.5.251.251 0 01-.049.377c-.884.865-1.754 1.745-2.635 2.614a.272.272 0 00-.055.358c.3.742.574 1.492.856 2.241a1.631 1.631 0 01.044.256z"/><path data-name="パス 9717" d="M15.246 13.553c.441-.5.875-.976 1.285-1.471a.306.306 0 01.438-.1 2.828 2.828 0 011.432 1.388.446.446 0 01-.047.484c-.46.677-.9 1.367-1.363 2.042a.329.329 0 00.012.456c.25.333.478.681.748 1.068a5.8 5.8 0 00-3.537 1.155c-.061-.1-.111-.177-.157-.257-.846-1.483-1.689-2.967-2.542-4.445a.354.354 0 01.022-.445 3.716 3.716 0 012.28-1.5.3.3 0 01.368.14c.287.426.589.842.886 1.262.049.068.104.133.175.223z"/></g></g></svg>