<svg xmlns="http://www.w3.org/2000/svg" width="45.928" height="45.928"><g data-name="グループ 11816"><g data-name="コンポーネント 125 – 3"><g data-name="グループ 11815"><path data-name="パス 6697" d="M22.964 0A22.964 22.964 0 110 22.964 22.964 22.964 0 0122.964 0z" fill="#13987f"/></g></g><g data-name="グループ 11771" fill="#fff"><path data-name="パス 9698" d="M22.528 36.601a2.259 2.259 0 01-2.239-2.239V23.778a2.259 2.259 0 012.239-2.239 2.259 2.259 0 012.239 2.239v10.584a2.259 2.259 0 01-2.239 2.239z"/><path data-name="パス 9699" d="M22.121 18.282h3.053a.385.385 0 00.407-.407v-6.106a.385.385 0 00-.407-.407h-3.053a3.457 3.457 0 00-3.46 3.46 3.457 3.457 0 003.46 3.46z"/><path data-name="線 1780" d="M23.528 23.371h-2v-6.513h2z"/><path data-name="線 1781" d="M29.041 15.822h-6.513a1 1 0 01-1-1 1 1 0 011-1h6.513a1 1 0 011 1 1 1 0 01-1 1z"/></g></g></svg>