<svg xmlns="http://www.w3.org/2000/svg" width="45.928" height="45.928"><g data-name="グループ 11822"><g data-name="コンポーネント 125 – 9"><g data-name="グループ 11815"><path data-name="パス 6697" d="M22.964 0A22.964 22.964 0 110 22.964 22.964 22.964 0 0122.964 0z" fill="#13987f"/></g></g><g data-name="グループ 11777" fill="#fff"><path data-name="パス 9713" d="M19.847 22.409V20.16c0-.324-.078-.4-.4-.4h-4.059a1.792 1.792 0 01-1.711-1 2.158 2.158 0 01-.226-.89 54.576 54.576 0 01-.009-2.622 1.848 1.848 0 011.906-1.895c1.252-.01 2.5-.019 3.757 0a7.191 7.191 0 017.148 7.134c.011.571 0 1.143 0 1.714 0 .066-.011.13-.018.206h-6.389z"/><path data-name="パス 9714" d="M19.851 24.036h6.391c.005.095.014.184.014.271v1.412c0 .38.062.443.437.443 1.329 0 2.656-.013 3.985.01a2.4 2.4 0 01.969.213 1.709 1.709 0 011.008 1.573c.024.94.026 1.883 0 2.824a1.814 1.814 0 01-1.782 1.778c-1.4.024-2.792.053-4.185-.01a7.178 7.178 0 01-6.834-7.028c-.011-.485 0-.971 0-1.488z"/></g></g></svg>