<svg xmlns="http://www.w3.org/2000/svg" width="45.928" height="45.928"><g data-name="グループ 11818"><g data-name="コンポーネント 125 – 4"><g data-name="グループ 11815"><path data-name="パス 6697" d="M22.964 0A22.964 22.964 0 110 22.964 22.964 22.964 0 0122.964 0z" fill="#13987f"/></g></g><g data-name="グループ 11776"><g data-name="グループ 11773" transform="translate(9.31 11.351)"><circle data-name="楕円形 529" cx="11.614" cy="11.614" r="11.614" fill="#fff"/><g data-name="グループ 11772" transform="translate(1.638 2.977)" fill="#13987f"><circle data-name="楕円形 530" cx="3.144" cy="3.144" r="3.144" transform="translate(5.359)"/><circle data-name="楕円形 531" cx="3.144" cy="3.144" r="3.144" transform="rotate(-14.98 25.309 3.322)"/><circle data-name="楕円形 532" cx="3.144" cy="3.144" r="3.144" transform="rotate(-14.98 50.842 -8.882)"/><circle data-name="楕円形 533" cx="3.144" cy="3.144" r="3.144" transform="rotate(-14.98 47.134 -36.932)"/><circle data-name="楕円形 534" cx="3.144" cy="3.144" r="3.144" transform="rotate(-14.98 19.312 -42.083)"/></g></g><path data-name="パス 9711" d="M30.971 27.57a1.5 1.5 0 011.232-2.679l2.996.764a1.5 1.5 0 11-.745 2.907l-2.993-.768a1.5 1.5 0 01-.49-.224z" fill="#fff"/><path data-name="パス 9712" d="M31.236 27.459a1 1 0 01-.057-1.152l4.46-7.041a1 1 0 011.38-.31 1 1 0 01.31 1.38l-4.46 7.042a1 1 0 01-1.38.31 1 1 0 01-.253-.23z" fill="#fff"/></g></g></svg>