<svg xmlns="http://www.w3.org/2000/svg" width="45.928" height="45.928"><g data-name="グループ 11820"><g data-name="コンポーネント 125 – 7"><g data-name="グループ 11815"><path data-name="パス 6697" d="M22.964 0A22.964 22.964 0 110 22.964 22.964 22.964 0 0122.964 0z" fill="#13987f"/></g></g><g data-name="8d2PJv.tif"><g data-name="グループ 11775" fill="#fff"><path data-name="パス 9705" d="M25.069 23.004c.079.065.152.115.214.176l4.586 4.5q2.537 2.492 5.07 4.988a1.341 1.341 0 01.229.339q.7 1.354 1.385 2.713a.329.329 0 01.05.113 2.375 2.375 0 010 .243c-.079-.021-.178-.017-.231-.066-.241-.218-.468-.45-.7-.678l-9.211-9.054-2.158-2.121c-.189-.187-.189-.229 0-.421s.4-.4.6-.6a1.827 1.827 0 01.173-.133z"/><path data-name="パス 9706" d="M20.591 16.048a1.454 1.454 0 01-.126.178q-1.6 1.626-3.195 3.25c-.152.154-.219.146-.368-.032q-1.339-1.594-2.679-3.184a.22.22 0 01.01-.353q1.3-1.31 2.585-2.632c.126-.129.221-.146.367-.028 1.083.879 2.171 1.752 3.255 2.63a1.333 1.333 0 01.151.171z"/><path data-name="パス 9707" d="M10.83 14.843a1 1 0 01.346-.754l2.817-2.868c.334-.34.666-.682 1-1.02a1 1 0 011.495-.027c.142.132.28.268.41.411a.989.989 0 01-.016 1.416q-1.934 1.978-3.877 3.95a1 1 0 01-1.493.012c-.13-.126-.259-.251-.382-.38a.967.967 0 01-.3-.74z"/><path data-name="パス 9708" d="M18.823 21.901a1.53 1.53 0 01-.233-.125c-.35-.281-.7-.562-1.041-.854-.21-.179-.2-.315.017-.538l3.513-3.577c.121-.123.241-.248.366-.367a.278.278 0 01.436 0c.319.363.63.733.938 1.106.127.153.071.3-.055.422l-2.192 2.231q-.748.76-1.5 1.518a1.845 1.845 0 01-.251.179z"/><path data-name="パス 9709" d="M23.049 23.731a1.9 1.9 0 01-.242-.11q-1.223-.8-2.442-1.6c-.195-.129-.2-.2-.027-.373l2.325-2.365c.209-.213.261-.21.424.028l1.6 2.348c.166.244.16.321-.036.523q-.681.7-1.366 1.388a1.658 1.658 0 01-.231.163z"/></g></g></g></svg>