<svg xmlns="http://www.w3.org/2000/svg" width="45.928" height="45.928"><g data-name="グループ 11819"><g data-name="コンポーネント 125 – 6"><g data-name="グループ 11815"><path data-name="パス 6697" d="M22.964 0A22.964 22.964 0 110 22.964 22.964 22.964 0 0122.964 0z" fill="#13987f"/></g></g><g data-name="9T6HvS.tif"><g data-name="グループ 11774" fill="#fff"><path data-name="パス 9701" d="M23.158 24.449c-.809 0-1.024-.148-1.32-.913-.15-.389-.291-.782-.458-1.164a.553.553 0 00-.261-.269 5.847 5.847 0 01-3.716-4.343c-.048-.21-.172-.216-.329-.244a.968.968 0 01-.8-.972.94.94 0 01.813-.951c.224-.027.272-.131.32-.322a5.733 5.733 0 014.618-4.515 5.86 5.86 0 016.921 4.522c.044.2.113.288.327.316a.974.974 0 010 1.919.337.337 0 00-.331.312 5.815 5.815 0 01-3.61 4.227.623.623 0 00-.4.4c-.122.358-.268.707-.406 1.059-.312.8-.512.937-1.368.938zm1.993-7.889a1.974 1.974 0 10-1.971 1.96 1.97 1.97 0 001.971-1.96z"/><path data-name="パス 9702" d="M22.185 26.434h1.98v.353c.016.913-.037 1.832.063 2.735a4.429 4.429 0 008.794-.218c.03-.4.024-.8.024-1.193 0-1.506.006-3.011 0-4.517a1.963 1.963 0 00-2.113-2.109h-1.812c.09-.118.15-.2.21-.275a3.282 3.282 0 00.742-1.528.25.25 0 01.176-.163 5.027 5.027 0 012.4.326 3.812 3.812 0 012.354 3.5c.052 1.922.044 3.847 0 5.769a6.4 6.4 0 01-12.692.94 22.129 22.129 0 01-.127-2.757c-.01-.279 0-.558 0-.866z"/><path data-name="パス 9703" d="M17.17 21.483h-1.806a1.948 1.948 0 00-2.055 2.018c-.015 1.2-.009 2.409 0 3.613 0 .232-.069.3-.3.295-.55-.015-1.1 0-1.678 0V23.52a3.951 3.951 0 014.01-4.011c.272 0 .6-.087.8.031.167.1.164.453.281.67.226.424.484.831.745 1.271z"/><path data-name="パス 9704" d="M11.372 29.404a1.151 1.151 0 01.162-.024h1.725a.619.619 0 01.042.148c0 1.271.013 2.544 0 3.816a.965.965 0 01-1.1.975.941.941 0 01-.855-.89c-.019-1.32-.006-2.641 0-3.961 0-.017.015-.035.029-.063z"/></g></g></g></svg>