<svg xmlns="http://www.w3.org/2000/svg" width="45.928" height="45.928"><g data-name="グループ 11824"><g data-name="コンポーネント 125 – 11"><g data-name="グループ 11815"><path data-name="パス 6697" d="M22.964 0A22.964 22.964 0 110 22.964 22.964 22.964 0 0122.964 0z" fill="#13987f"/></g></g><g data-name="0PEApi.tif"><g data-name="グループ 11779" fill="#fff"><path data-name="パス 9718" d="M23.809 23.633c-.4.179-.772.346-1.144.518-.5.23-.988.469-1.489.692a2.572 2.572 0 00-1.492 1.626 20.265 20.265 0 00-.633 2.773c-.256 1.719-.438 3.449-.645 5.174-.02.163-.042.265-.246.264-1.816-.007-3.632 0-5.448 0a1.319 1.319 0 01-.191-.031c.1-.617.19-1.223.286-1.828l1.8-11.271a3.238 3.238 0 01.89-1.835 1.966 1.966 0 012.478-.382 6.61 6.61 0 01.957.638 2.219 2.219 0 002.219.4 7.356 7.356 0 01.746-.218.256.256 0 01.223.081c.566 1.122 1.121 2.249 1.692 3.4z"/><path data-name="パス 9719" d="M26.95 15.151a4.938 4.938 0 015.073 4.479 4.883 4.883 0 01-4.2 5.24l-.114.016c-.972.129-1.053.09-1.479-.77-1.046-2.107-2.087-4.218-3.139-6.323a.419.419 0 01.038-.495 4.78 4.78 0 013.818-2.147z"/><path data-name="パス 9720" d="M36.005 20.183a8.98 8.98 0 01-5.525 8.013 1.822 1.822 0 01-.758.119.92.92 0 01-.817-.776.957.957 0 01.483-1.023 3.508 3.508 0 01.37-.159 6.84 6.84 0 00-1.8-13.116 6.721 6.721 0 00-2.957.307c-.164.055-.326.114-.493.16a.971.971 0 01-1.2-.622.954.954 0 01.554-1.207 8.509 8.509 0 013.752-.613 8.773 8.773 0 014.234 1.362 8.5 8.5 0 013.853 5.42c.159.7.205 1.421.3 2.133z"/></g></g></g></svg>