<svg xmlns="http://www.w3.org/2000/svg" width="23.271" height="23.271"><g data-name="グループ 11543"><path data-name="楕円形 78" d="M11.635 0A11.635 11.635 0 110 11.635 11.635 11.635 0 0111.635 0z" fill="#13987f"/><g data-name="グループ 11509" fill="#fff"><g data-name="コンポーネント 134 – 7" transform="translate(5.882 13.842)"><circle data-name="楕円形 79" cx="1.17" cy="1.17" r="1.17"/><path data-name="合体 2" d="M4.512 2.117a.947.947 0 110-1.894h6.19a.947.947 0 010 1.894z"/></g><g data-name="コンポーネント 134 – 8" transform="translate(5.882 10.483)"><circle data-name="楕円形 79" cx="1.17" cy="1.17" r="1.17"/><path data-name="合体 2" d="M4.512 2.117a.947.947 0 110-1.894h6.19a.947.947 0 010 1.894z"/></g><g data-name="コンポーネント 134 – 9" transform="translate(5.882 7.124)"><circle data-name="楕円形 79" cx="1.17" cy="1.17" r="1.17"/><path data-name="合体 2" d="M4.512 2.117a.947.947 0 110-1.894h6.19a.947.947 0 010 1.894z"/></g></g></g></svg>