<svg xmlns="http://www.w3.org/2000/svg" width="45.928" height="45.928"><g data-name="グループ 11851"><path data-name="パス 6697" d="M22.964 0A22.964 22.964 0 110 22.964 22.964 22.964 0 0122.964 0z" fill="#13987f"/><g data-name="ネイル(2)" fill="#fff"><path data-name="パス 9732" d="M19.337 23.112a1.026 1.026 0 01-.66-.485.405.405 0 01-.065-.118 2.268 2.268 0 01.03-1.394.961.961 0 01.967-.586H26.3a1 1 0 011.008.627 1.206 1.206 0 01.076.394c.012.191 0 .383 0 .576a.957.957 0 01-.537.877c-.076.043-.159.077-.256.123.058.069.106.13.157.188l2.5 2.848a2.708 2.708 0 01.633 2.507c-.251 1.075-.558 2.136-.84 3.2-.255.963-.5 1.93-.764 2.892a2.881 2.881 0 01-2.8 2.144q-2.541.01-5.08 0a2.882 2.882 0 01-2.725-2.011c-.294-.993-.534-2-.8-3-.267-1.055-.562-2.107-.824-3.165a2.812 2.812 0 01.7-2.667q1.254-1.411 2.506-2.824a1.3 1.3 0 00.084-.125zm.649 11.1a.9.9 0 00.855-.427 1.019 1.019 0 00.107-.86q-.392-1.441-.782-2.884c-.125-.462-.24-.926-.362-1.389a1.032 1.032 0 00-.926-.809.939.939 0 00-.913 1.161c.149.63.324 1.253.491 1.878.233.875.461 1.752.706 2.625a.914.914 0 00.82.711z"/><path data-name="パス 9733" d="M25.174 13.784v5.369a.432.432 0 01-.484.48h-3.438c-.346 0-.5-.154-.5-.5V8.481c0-.4.133-.547.534-.55q1.7-.008 3.4 0c.327 0 .478.167.478.5v5.354z"/></g></g></svg>