<svg xmlns="http://www.w3.org/2000/svg" width="45.928" height="45.928"><g data-name="グループ 11849"><path data-name="パス 6697" d="M22.964 0A22.964 22.964 0 110 22.964 22.964 22.964 0 0122.964 0z" fill="#13987f"/><path d="M23.314 30.089a28.971 28.971 0 01-7.132-.575c-.409-.09-.812-.21-1.222-.3a3.188 3.188 0 01-2.482-2.507 8.938 8.938 0 01.589-7 8.482 8.482 0 011.366-2.29 3.651 3.651 0 012.139-1.035 55.426 55.426 0 0112.184-.139c.4.04.8.12 1.207.141a3.234 3.234 0 012.685 1.64 12.585 12.585 0 011.842 4.472 9.583 9.583 0 01-.651 4.976 2.816 2.816 0 01-2.007 1.7 26.539 26.539 0 01-7.844.925h-.671zm9.3-5.881c-.807.311-1.595.669-2.417.917a21.887 21.887 0 01-5.422.805 26.444 26.444 0 01-8.4-.812c-.819-.231-1.6-.6-2.4-.914a1.181 1.181 0 00.615.9 8.934 8.934 0 001.523.78 17.881 17.881 0 005.261.967 24.576 24.576 0 008.319-.723 12.82 12.82 0 002.283-1.016 1.112 1.112 0 00.631-.906z" fill="#fff"/></g></svg>