<svg xmlns="http://www.w3.org/2000/svg" width="45.928" height="45.928"><g data-name="グループ 11850"><path data-name="パス 6697" d="M22.964 0A22.964 22.964 0 110 22.964 22.964 22.964 0 0122.964 0z" fill="#13987f"/><g data-name="グループ 11848" fill="#fff"><path data-name="パス 9734" d="M22.956 11.054h-5.552a1.226 1.226 0 00-1.267 1.449c.166 1.226.336 2.451.504 3.678l.927 6.725q.5 3.633.991 7.267c.024.18.088.222.262.222 1.7-.006 3.41 0 5.115 0h3.2c.114 0 .2-.006.2-.156.012-.205.049-.409.078-.614l1.551-11.25q.408-2.956.819-5.913a1.191 1.191 0 00-.164-.808 1.3 1.3 0 00-1.222-.6c-1.814.006-3.629 0-5.442 0zM18.77 31.579c0 .074 0 .122.011.17.173 1.268.342 2.536.523 3.8a.87.87 0 00.933.786h5.476a.879.879 0 00.894-.77q.265-1.918.527-3.839c.006-.046 0-.092.007-.151H18.77z"/><path data-name="パス 9735" d="M22.956 11.054h5.442a1.294 1.294 0 011.222.606 1.2 1.2 0 01.172.8l-.819 5.913-1.553 11.252c-.028.2-.065.408-.078.614-.008.15-.09.156-.2.156h-8.315c-.174 0-.238-.042-.262-.222q-.488-3.635-.991-7.267-.468-3.362-.933-6.724-.254-1.841-.504-3.679a1.226 1.226 0 011.267-1.449h5.552z"/><path data-name="パス 9736" d="M18.77 31.579h8.372a1.4 1.4 0 01-.007.151l-.527 3.839a.88.88 0 01-.894.77h-5.476a.87.87 0 01-.933-.786c-.181-1.267-.35-2.535-.523-3.8-.006-.048-.006-.1-.011-.17z"/></g></g></svg>