<svg xmlns="http://www.w3.org/2000/svg" width="45.928" height="45.928"><g data-name="グループ 11852"><path data-name="パス 6697" d="M22.964 0A22.964 22.964 0 110 22.964 22.964 22.964 0 0122.964 0z" fill="#13987f"/><g fill="#fff"><path data-name="パス 9737" d="M22.969 16.526h-2.812c-.149 0-.2-.057-.2-.2v-3.678c0-.149.058-.2.2-.2h1.524c.24 0 .272-.033.272-.275v-2.166c0-.248-.061-.32-.309-.316a11.679 11.679 0 00-2.153.2c-.3.06-.6.1-.9.156a15.24 15.24 0 00-.983.233.646.646 0 01-.869-.44.613.613 0 01.4-.692c.519-.123 1.032-.272 1.557-.367.509-.092 1.035-.094 1.539-.2a8.392 8.392 0 012.161-.084c.608.023 1.215.136 1.821.218.35.048.7.1 1.048.174a5.067 5.067 0 01.9.275.52.52 0 01.308.488.589.589 0 01-.272.528.572.572 0 01-.59.047 4.715 4.715 0 00-.719-.179c-.242-.051-.486-.089-.73-.132-.149-.027-.218.028-.217.19 0 .712.006 1.424 0 2.136 0 .166.071.214.225.213.53-.006 1.062 0 1.592-.007.145 0 .182.044.182.184q-.009 1.848 0 3.7c0 .169-.05.2-.213.2-.92-.009-1.841 0-2.761 0z"/><path data-name="パス 9738" d="M30.173 31.759c-.04-.873-.093-1.745-.142-2.618 0-.04-.006-.08-.011-.119-.061-.591-.131-1.181-.182-1.773-.065-.757-.112-1.515-.176-2.271-.059-.7-.133-1.4-.2-2.1-.045-.488-.053-.981-.136-1.462a3.625 3.625 0 00-.68-1.555 4.048 4.048 0 00-2.424-1.542 5.123 5.123 0 00-1.057-.1 67.822 67.822 0 00-2.429 0 17.535 17.535 0 00-2.753.08 4.641 4.641 0 00-1.03.276 5.257 5.257 0 00-.929.556 2.93 2.93 0 00-.861.941 5.885 5.885 0 00-.363.729 2.69 2.69 0 00-.194.684c-.082.714-.139 1.432-.2 2.15-.055.636-.1 1.275-.157 1.911-.067.75-.146 1.5-.21 2.251-.059.7-.1 1.394-.157 2.092-.005.065-.014.129-.023.193a5.939 5.939 0 00.147 2.884 5.921 5.921 0 00.4.89 4.309 4.309 0 00.936 1.1 4 4 0 001.049.673 5.17 5.17 0 00.71.258 5.072 5.072 0 001.059.195c.934.028 1.868.009 3.043.009a20.711 20.711 0 003.249-.115 5.217 5.217 0 00.94-.275 4.481 4.481 0 001.264-.806 4.585 4.585 0 00.883-1.068 7.029 7.029 0 00.4-.922 2.681 2.681 0 00.22-1.136zm-9.146-8.829c-.4 1.107-1.394 1.763-2.215 1.464a1.921 1.921 0 01-.755-2.545c.4-1.107 1.394-1.763 2.215-1.464a1.921 1.921 0 01.755 2.545z"/></g></g></svg>