<svg xmlns="http://www.w3.org/2000/svg" width="45.928" height="45.928"><g data-name="グループ 11853"><path data-name="パス 6697" d="M22.964 0A22.964 22.964 0 110 22.964 22.964 22.964 0 0122.964 0z" fill="#13987f"/><path d="M29.281 8.464l-.15.076a.824.824 0 01.676.291q2.027 2.033 4.055 4.058a2.254 2.254 0 01.658 1.131 1.863 1.863 0 01-.365 1.544 11.534 11.534 0 01-1.029 1.121q-3.208 3.221-6.425 6.433-3.441 3.441-6.884 6.88-2.66 2.658-5.322 5.314a1.8 1.8 0 01-1.17.59 1.61 1.61 0 01-1.5-.706 2.38 2.38 0 01-.143-2.593 5.258 5.258 0 011.375-1.693 21.518 21.518 0 012.432-1.679 35.843 35.843 0 004.631-3.316c.278-.245.538-.511.811-.764.081-.075.05-.12-.012-.185q-1.574-1.655-3.144-3.309a11.392 11.392 0 01-.51-.567.89.89 0 011.3-1.21c.37.363.733.733 1.1 1.1l1.465 1.469c.356.356.5.357.861.007a1.366 1.366 0 00.136-.143.386.386 0 00-.009-.552c-.145-.163-.3-.316-.457-.471q-1.116-1.113-2.235-2.226a.911.911 0 01-.367-.7.666.666 0 01.994-.557 2.685 2.685 0 01.466.412c.85.846 1.7 1.7 2.547 2.544a.381.381 0 00.613.012 2.629 2.629 0 00.229-.223.409.409 0 00-.006-.623c-.468-.481-.944-.955-1.419-1.43-.456-.457-.916-.911-1.371-1.37a.681.681 0 11.873-1.045c.362.335.7.692 1.052 1.041q.841.842 1.679 1.686c.065.065.131.129.2.186a.394.394 0 00.552-.01 2.791 2.791 0 00.262-.276.394.394 0 00-.034-.584c-.85-.847-1.7-1.692-2.549-2.543a2.849 2.849 0 01-.4-.479.6.6 0 01.047-.7.6.6 0 01.629-.284.754.754 0 01.372.183c.809.795 1.608 1.6 2.409 2.4.158.158.32.314.484.464a.388.388 0 00.573.013 2.628 2.628 0 00.282-.278.374.374 0 000-.558c-.325-.343-.66-.678-.994-1.012-.6-.6-1.208-1.194-1.811-1.791a.73.73 0 01-.211-.818.676.676 0 011.042-.284 3.953 3.953 0 01.378.354q1.242 1.24 2.481 2.483a1.367 1.367 0 00.147.132.363.363 0 00.51-.027c.112-.109.21-.234.311-.354a.287.287 0 00.012-.367 1.3 1.3 0 00-.172-.212q-1.346-1.35-2.7-2.7a.728.728 0 01-.229-.759.671.671 0 011.148-.286c.46.454.914.912 1.37 1.37s.931.938 1.4 1.4c.286.283.482.28.766 0a1.817 1.817 0 00.125-.132.43.43 0 00-.023-.682q-1.234-1.236-2.475-2.467a1.6 1.6 0 01-.423-.587.9.9 0 01.445-1 1.923 1.923 0 01.326-.08l-.085-.062h.4z" fill="#fff"/></g></svg>