<svg xmlns="http://www.w3.org/2000/svg" width="45.928" height="45.928"><g data-name="グループ 11854"><path data-name="パス 6697" d="M22.964 0A22.964 22.964 0 110 22.964 22.964 22.964 0 0122.964 0z" fill="#13987f"/><g fill="#fff"><path data-name="パス 9739" d="M33.784 26.781c0-.048-.006-.1-.01-.142a8.68 8.68 0 00-.026-.362c0-.05-.011-.1-.016-.152a13.448 13.448 0 00-.042-.351l-.021-.141c-.018-.12-.039-.241-.061-.359l-.024-.121c-.026-.126-.052-.252-.082-.377l-.024-.1q-.048-.2-.107-.4l-.019-.069a8.68 8.68 0 00-.136-.423c0-.013-.008-.024-.013-.037a11.9 11.9 0 00-.168-.454 10.847 10.847 0 00-7.721-6.58h-1.378v-1.547h1.611a.484.484 0 00.485-.485V9.348a.484.484 0 00-.485-.485H20.38a.484.484 0 00-.485.485v5.334a.484.484 0 00.485.485h1.616v1.551h-1.377a10.835 10.835 0 00-8.351 8.906c0 .015 0 .027-.006.042-.023.154-.044.309-.06.464 0 .029-.006.058-.01.086-.015.142-.024.286-.034.432 0 .037 0 .074-.008.112-.008.176-.013.352-.013.53a10.824 10.824 0 00.454 3.113q.112.371.247.729t.3.7c.107.231.221.456.344.677a10.868 10.868 0 002.641 3.165q.291.238.6.456t.632.414a10.459 10.459 0 001 .538h9.221a10.832 10.832 0 001-.538c.215-.131.427-.27.632-.414s.406-.3.6-.456a10.922 10.922 0 001.589-1.6 10.736 10.736 0 001.05-1.56q.184-.332.344-.677t.3-.7q.136-.359.247-.729a10.824 10.824 0 00.454-3.115c0-.17 0-.339-.013-.508zm-17.97-5.3a9.243 9.243 0 014.991-3.15h4.325a9.246 9.246 0 016.472 5.726 9.221 9.221 0 01-3.695.8c-4.454 0-5.263-2.565-9.251-2.565a8.313 8.313 0 00-3.981.971 9.379 9.379 0 011.139-1.786z"/><path data-name="パス 9740" d="M31.534 12.499H29.11a.566.566 0 110-1.131h2.424a.566.566 0 010 1.131z"/><path data-name="パス 9741" d="M30.919 15.027a.568.568 0 01-.2-.036l-2-.753a.566.566 0 01.4-1.059l2 .753a.566.566 0 01-.2 1.1z"/><path data-name="パス 9742" d="M28.918 10.73a.566.566 0 01-.2-1.1l2-.753a.566.566 0 11.4 1.059l-2 .753a.574.574 0 01-.2.036z"/></g></g></svg>