<svg xmlns="http://www.w3.org/2000/svg" width="45.928" height="45.928" viewBox="0 0 45.928 45.928">
  <g id="グループ_11851" data-name="グループ 11851" transform="translate(-556.536 -2782.536)">
    <path id="パス_6697" data-name="パス 6697" d="M22.964,0A22.964,22.964,0,1,1,0,22.964,22.964,22.964,0,0,1,22.964,0Z" transform="translate(556.536 2782.536)" fill="#13987f"/>
    <g id="ネイル_2_" data-name="ネイル(2)" transform="translate(572.501 2790.449)">
      <path id="パス_9732" data-name="パス 9732" d="M3.372,95.583a1.026,1.026,0,0,1-.66-.485.405.405,0,0,1-.065-.118,2.268,2.268,0,0,1,.03-1.394A.961.961,0,0,1,3.644,93c.87,0,1.739,0,2.609,0q2.041,0,4.082,0a1,1,0,0,1,1.008.627,1.206,1.206,0,0,1,.076.394c.012.191,0,.383,0,.576a.957.957,0,0,1-.537.877c-.076.043-.159.077-.256.123.058.069.106.13.157.188q1.252,1.425,2.5,2.848a2.708,2.708,0,0,1,.633,2.507c-.251,1.075-.558,2.136-.84,3.2-.255.963-.5,1.93-.764,2.892a2.881,2.881,0,0,1-2.8,2.144q-2.541.01-5.08,0a2.882,2.882,0,0,1-2.725-2.011c-.294-.993-.534-2-.8-3C.64,103.31.345,102.258.083,101.2a2.812,2.812,0,0,1,.7-2.667q1.254-1.411,2.506-2.824a1.3,1.3,0,0,0,.084-.125Zm.649,11.1a.9.9,0,0,0,.855-.427,1.019,1.019,0,0,0,.107-.86q-.392-1.441-.782-2.884c-.125-.462-.24-.926-.362-1.389a1.032,1.032,0,0,0-.926-.809A.939.939,0,0,0,2,101.475c.149.63.324,1.253.491,1.878.233.875.461,1.752.706,2.625a.914.914,0,0,0,.82.711Z" transform="translate(0 -80.384)" fill="#fff"/>
      <path id="パス_9733" data-name="パス 9733" d="M39.828,5.871V11.24a.432.432,0,0,1-.484.48H35.906c-.346,0-.5-.154-.5-.5V.568c0-.4.133-.547.534-.55q1.7-.008,3.4,0c.327,0,.478.167.478.5V5.872h0Z" transform="translate(-30.619)" fill="#fff"/>
    </g>
  </g>
</svg>
