<svg xmlns="http://www.w3.org/2000/svg" width="45.928" height="45.928" viewBox="0 0 45.928 45.928">
  <g id="グループ_11850" data-name="グループ 11850" transform="translate(-179.535 -2877.534)">
    <path id="パス_6697" data-name="パス 6697" d="M22.964,0A22.964,22.964,0,1,1,0,22.964,22.964,22.964,0,0,1,22.964,0Z" transform="translate(179.535 2877.534)" fill="#13987f"/>
    <g id="NUJm20.tif" transform="translate(195.655 2888.588)">
      <g id="グループ_11848" data-name="グループ 11848" transform="translate(0.003 0)">
        <path id="パス_9734" data-name="パス 9734" d="M6.836,0Q4.059,0,1.284,0A1.226,1.226,0,0,0,.017,1.449C.183,2.675.353,3.9.521,5.127q.464,3.363.927,6.725.5,3.633.991,7.267c.024.18.088.222.262.222,1.7-.006,3.41,0,5.115,0h3.2c.114,0,.2-.006.2-.156.012-.205.049-.409.078-.614q.776-5.625,1.551-11.25.408-2.956.819-5.913A1.191,1.191,0,0,0,13.5.6,1.3,1.3,0,0,0,12.278,0C10.464.006,8.649,0,6.836,0ZM2.65,20.525c0,.074,0,.122.011.17.173,1.268.342,2.536.523,3.8a.87.87,0,0,0,.933.786c.7,0,1.407,0,2.11,0,1.122,0,2.244,0,3.366,0a.879.879,0,0,0,.894-.77q.265-1.918.527-3.839c.006-.046,0-.092.007-.151H2.65Z" transform="translate(-0.003 0)" fill="#fff"/>
        <path id="パス_9735" data-name="パス 9735" d="M6.836,0c1.814,0,3.629,0,5.442,0A1.294,1.294,0,0,1,13.5.606a1.2,1.2,0,0,1,.172.8q-.41,2.956-.819,5.913L11.3,18.571c-.028.2-.065.408-.078.614-.008.15-.09.156-.2.156-1.068,0-2.135,0-3.2,0-1.7,0-3.41,0-5.115,0-.174,0-.238-.042-.262-.222q-.488-3.635-.991-7.267Q.986,8.49.521,5.128.267,3.287.017,1.449A1.226,1.226,0,0,1,1.284,0Q4.06,0,6.836,0Z" transform="translate(-0.003 0)" fill="#fff"/>
        <path id="パス_9736" data-name="パス 9736" d="M22.07,171.1h8.372a1.4,1.4,0,0,1-.007.151q-.263,1.92-.527,3.839a.88.88,0,0,1-.894.77c-1.122,0-2.244,0-3.366,0h-2.11a.87.87,0,0,1-.933-.786c-.181-1.267-.35-2.535-.523-3.8-.006-.048-.006-.1-.011-.17Z" transform="translate(-19.423 -150.575)" fill="#fff"/>
      </g>
    </g>
  </g>
</svg>
