<svg xmlns="http://www.w3.org/2000/svg" width="45.928" height="45.928" viewBox="0 0 45.928 45.928">
  <g id="グループ_11853" data-name="グループ 11853" transform="translate(-933.536 -2782.536)">
    <path id="パス_6697" data-name="パス 6697" d="M22.964,0A22.964,22.964,0,1,1,0,22.964,22.964,22.964,0,0,1,22.964,0Z" transform="translate(933.536 2782.536)" fill="#13987f"/>
    <path id="へアブラシ" d="M17.936,0l-.15.076a.824.824,0,0,1,.676.291Q20.489,2.4,22.517,4.425a2.254,2.254,0,0,1,.658,1.131A1.863,1.863,0,0,1,22.81,7.1a11.534,11.534,0,0,1-1.029,1.121q-3.208,3.221-6.425,6.433-3.441,3.441-6.884,6.88-2.66,2.658-5.322,5.314a1.8,1.8,0,0,1-1.17.59,1.61,1.61,0,0,1-1.5-.706,2.38,2.38,0,0,1-.143-2.593,5.258,5.258,0,0,1,1.375-1.693,21.518,21.518,0,0,1,2.432-1.679,35.843,35.843,0,0,0,4.631-3.316c.278-.245.538-.511.811-.764.081-.075.05-.12-.012-.185Q8,14.847,6.43,13.193c-.175-.184-.348-.372-.51-.567a.89.89,0,0,1,1.3-1.21c.37.363.733.733,1.1,1.1q.732.734,1.465,1.469c.356.356.5.357.861.007a1.366,1.366,0,0,0,.136-.143.386.386,0,0,0-.009-.552c-.145-.163-.3-.316-.457-.471Q9.2,11.713,8.081,10.6a.911.911,0,0,1-.367-.7.666.666,0,0,1,.994-.557,2.685,2.685,0,0,1,.466.412c.85.846,1.7,1.7,2.547,2.544a.381.381,0,0,0,.613.012,2.629,2.629,0,0,0,.229-.223.409.409,0,0,0-.006-.623c-.468-.481-.944-.955-1.419-1.43-.456-.457-.916-.911-1.371-1.37a.681.681,0,1,1,.873-1.045c.362.335.7.692,1.052,1.041q.841.842,1.679,1.686c.065.065.131.129.2.186a.394.394,0,0,0,.552-.01,2.791,2.791,0,0,0,.262-.276.394.394,0,0,0-.034-.584c-.85-.847-1.7-1.692-2.549-2.543a2.849,2.849,0,0,1-.4-.479.6.6,0,0,1,.047-.7.6.6,0,0,1,.629-.284.754.754,0,0,1,.372.183c.809.795,1.608,1.6,2.409,2.4.158.158.32.314.484.464a.388.388,0,0,0,.573.013,2.628,2.628,0,0,0,.282-.278.374.374,0,0,0,0-.558c-.325-.343-.66-.678-.994-1.012-.6-.6-1.208-1.194-1.811-1.791a.73.73,0,0,1-.211-.818.676.676,0,0,1,1.042-.284,3.953,3.953,0,0,1,.378.354q1.242,1.24,2.481,2.483a1.367,1.367,0,0,0,.147.132.363.363,0,0,0,.51-.027c.112-.109.21-.234.311-.354a.287.287,0,0,0,.012-.367,1.3,1.3,0,0,0-.172-.212q-1.346-1.35-2.7-2.7a.728.728,0,0,1-.229-.759A.671.671,0,0,1,16.11,2.24c.46.454.914.912,1.37,1.37s.931.938,1.4,1.4c.286.283.482.28.766,0a1.817,1.817,0,0,0,.125-.132.43.43,0,0,0-.023-.682Q18.514,2.96,17.273,1.729a1.6,1.6,0,0,1-.423-.587.9.9,0,0,1,.445-1,1.923,1.923,0,0,1,.326-.08L17.536,0h.4Z" transform="translate(944.881 2791)" fill="#fff"/>
  </g>
</svg>
