<svg xmlns="http://www.w3.org/2000/svg" width="45.928" height="45.928" viewBox="0 0 45.928 45.928">
  <g id="グループ_11854" data-name="グループ 11854" transform="translate(-933.536 -2877.534)">
    <path id="パス_6697" data-name="パス 6697" d="M22.964,0A22.964,22.964,0,1,1,0,22.964,22.964,22.964,0,0,1,22.964,0Z" transform="translate(933.536 2877.534)" fill="#13987f"/>
    <g id="香水" transform="translate(945.683 2886.383)">
      <path id="パス_9739" data-name="パス 9739" d="M21.637,18.028c0-.048-.006-.1-.01-.142-.006-.121-.015-.242-.026-.362,0-.05-.011-.1-.016-.152-.013-.118-.026-.234-.042-.351-.006-.047-.015-.094-.021-.141-.018-.12-.039-.241-.061-.359l-.024-.121c-.026-.126-.052-.252-.082-.377l-.024-.1q-.048-.2-.107-.4c-.006-.023-.013-.045-.019-.069-.042-.142-.087-.284-.136-.423,0-.013-.008-.024-.013-.037-.053-.154-.108-.3-.168-.454h0a10.847,10.847,0,0,0-7.721-6.58H11.789V6.413H13.4a.484.484,0,0,0,.485-.485V.595A.484.484,0,0,0,13.4.11H8.233a.484.484,0,0,0-.485.485V5.929a.484.484,0,0,0,.485.485H9.849V7.965H8.472A10.835,10.835,0,0,0,.121,16.871c0,.015,0,.027-.006.042-.023.154-.044.309-.06.464,0,.029-.006.058-.01.086-.015.142-.024.286-.034.432,0,.037,0,.074-.008.112-.008.176-.013.352-.013.53A10.824,10.824,0,0,0,.444,21.65q.112.371.247.729t.3.7c.107.231.221.456.344.677a10.868,10.868,0,0,0,2.641,3.165q.291.238.6.456t.632.414a10.459,10.459,0,0,0,1,.538h9.221a10.832,10.832,0,0,0,1-.538c.215-.131.427-.27.632-.414s.406-.3.6-.456a10.922,10.922,0,0,0,1.589-1.6A10.736,10.736,0,0,0,20.3,23.761q.184-.332.344-.677t.3-.7q.136-.359.247-.729a10.824,10.824,0,0,0,.454-3.115c0-.17,0-.339-.013-.508Zm-17.97-5.3a9.243,9.243,0,0,1,4.991-3.15h4.325a9.246,9.246,0,0,1,6.472,5.726,9.221,9.221,0,0,1-3.695.8c-4.454,0-5.263-2.565-9.251-2.565a8.313,8.313,0,0,0-3.981.971,9.379,9.379,0,0,1,1.139-1.786Z" transform="translate(0 -0.096)" fill="#fff"/>
      <path id="パス_9740" data-name="パス 9740" d="M104.49,16.741h-2.424a.566.566,0,1,1,0-1.131h2.424a.566.566,0,0,1,0,1.131Z" transform="translate(-85.103 -13.091)" fill="#fff"/>
      <path id="パス_9741" data-name="パス 9741" d="M102.882,28.478a.568.568,0,0,1-.2-.036l-2-.753a.566.566,0,0,1,.4-1.059l2,.753a.566.566,0,0,1-.2,1.1Z" transform="translate(-84.11 -22.3)" fill="#fff"/>
      <path id="パス_9742" data-name="パス 9742" d="M100.882,1.881a.566.566,0,0,1-.2-1.1l2-.753a.566.566,0,1,1,.4,1.059l-2,.753a.574.574,0,0,1-.2.036Z" transform="translate(-84.111 0)" fill="#fff"/>
    </g>
  </g>
</svg>
