<svg xmlns="http://www.w3.org/2000/svg" width="45.928" height="45.928" viewBox="0 0 45.928 45.928">
  <g id="グループ_11849" data-name="グループ 11849" transform="translate(-179.535 -2782.536)">
    <path id="パス_6697" data-name="パス 6697" d="M22.964,0A22.964,22.964,0,1,1,0,22.964,22.964,22.964,0,0,1,22.964,0Z" transform="translate(179.535 2782.536)" fill="#13987f"/>
    <path id="石鹸" d="M11.275,14.117a28.971,28.971,0,0,1-7.132-.575c-.409-.09-.812-.21-1.222-.3A3.188,3.188,0,0,1,.439,10.735a8.938,8.938,0,0,1,.589-7,8.482,8.482,0,0,1,1.366-2.29A3.651,3.651,0,0,1,4.533.41,55.426,55.426,0,0,1,16.717.271c.4.04.8.12,1.207.141a3.234,3.234,0,0,1,2.685,1.64,12.585,12.585,0,0,1,1.842,4.472A9.583,9.583,0,0,1,21.8,11.5a2.816,2.816,0,0,1-2.007,1.7,26.539,26.539,0,0,1-7.844.925c-.224,0-.447,0-.671,0Zm9.3-5.881c-.807.311-1.595.669-2.417.917a21.887,21.887,0,0,1-5.422.805,26.444,26.444,0,0,1-8.4-.812c-.819-.231-1.6-.6-2.4-.914a1.181,1.181,0,0,0,.615.9,8.934,8.934,0,0,0,1.523.78,17.881,17.881,0,0,0,5.261.967,24.576,24.576,0,0,0,8.319-.723,12.82,12.82,0,0,0,2.283-1.016,1.112,1.112,0,0,0,.631-.906Z" transform="translate(191.574 2798.508)" fill="#fff"/>
  </g>
</svg>
