<svg xmlns="http://www.w3.org/2000/svg" width="100" height="100"><defs><clipPath id="a"><path data-name="長方形 23489" transform="translate(246.683 3739.004)" fill="#eee" d="M0 0h100v100H0z"/></clipPath></defs><g data-name="マスクグループ 65" transform="translate(-246.683 -3739.004)" clip-path="url(#a)"><g data-name="倉庫のフリーアイコン素材 2"><g data-name="グループ 11723" fill="#13987f"><path data-name="パス 9664" d="M330.441 3814.142v-48.132l-33.758-9.913-33.742 9.913v48.132h-6.5v7.766h80.484v-7.766zm-32.735-32.267h.025v-2.963h25.06v36.45h-52.217v-36.45h25.072v2.963h2.06zm.062-13.6v-6.142l12.963 3.829v2.321h-12.963zm-15.121 0v-2.313l12.962-3.829v6.15h-12.962z"/><path data-name="パス 9665" d="M275.476 3812.499h11.744v-22.121h-11.744v22.121zm8.756-15.755h-5.756v-3.379h5.755zm0 6.378h-5.756v-3.379h5.755zm0 3v3.377h-5.756v-3.378z"/><path data-name="パス 9666" d="M290.135 3796.744h-.025v15.755h11.743v-15.755h-11.718zm2.975 6.378v-3.378h5.756v3.378zm0 6.377v-3.377h5.756v3.377z"/><path data-name="パス 9667" d="M304.743 3803.121v9.378h11.755v-9.378zm3 6.377v-3.377h5.756v3.377z"/><path data-name="パス 9668" d="M287.781 3783.193v2.244a.834.834 0 00.878.83l8-1.244h.061l7.988 1.244a.844.844 0 00.89-.83v-2.244a.828.828 0 00-.89-.817l-7.988 1.244h-.061l-8-1.244a.818.818 0 00-.878.817z"/></g></g></g></svg>