<svg xmlns="http://www.w3.org/2000/svg" width="100" height="100"><defs><clipPath id="a"><path data-name="長方形 23012" transform="translate(810.811 3739.004)" fill="#eee" d="M0 0h100v100H0z"/></clipPath></defs><g data-name="マスクグループ 67" transform="translate(-810.811 -3739.004)" clip-path="url(#a)"><g fill="#13987f"><path data-name="パス 9671" d="M858.897 3809.503v-22.454H828.62v24.323h30.277zm-3.732-1.866h-22.813v-16.856h7.564v8.091l3.842-1.664 3.843 1.664v-8.091h7.564z"/><path data-name="パス 9672" d="M862.724 3811.372h30.277v-24.323h-30.277zm3.732-20.589h7.564v8.089l3.842-1.664 3.842 1.664v-8.091h7.564v16.856h-22.812z"/><path data-name="パス 9673" d="M876.2 3781.411v-22.455h-30.275v24.321H876.2zm-3.732-1.866h-22.807v-16.857h7.56v8.086l3.84-1.664 3.842 1.664v-8.086h7.564v16.857z"/><path data-name="パス 9674" d="M902.433 3819.634v-4.33h-83.245v4.331h7.888v5.083h-7.888v4.331h83.246v-4.331h-7.721v-5.084h7.72zm-61.05 0h12.357v5.084h-12.356zm39.022 5.084h-12.357v-5.084h12.357z"/></g></g></svg>