<svg xmlns="http://www.w3.org/2000/svg" width="100" height="100"><defs><clipPath id="a"><path data-name="長方形 23487" transform="translate(1093.061 3815.371)" fill="#eee" d="M0 0h100v100H0z"/></clipPath></defs><g data-name="マスクグループ 68" transform="translate(-1093.061 -3815.371)" clip-path="url(#a)"><g fill="#13987f"><path data-name="パス 9686" d="M1115.578 3848.483a6.614 6.614 0 10-6.615-6.614 6.614 6.614 0 006.615 6.614z"/><path data-name="パス 9687" d="M1138.048 3868.645a2.969 2.969 0 00-.04-.393l9.879-7.17a1.393 1.393 0 10-1.637-2.255l-9.9 7.185a2.887 2.887 0 00-1.2-.268h-5.383l-1.311-7.435c-.717-3.749-2.222-6.693-5.427-6.693h-13.582c-3.204 0-6.691 3.487-6.691 6.693v22.23a2.9 2.9 0 002.9 2.9h2.026l1.1 18.959a3.088 3.088 0 003.091 3.085h6.176a3.087 3.087 0 003.087-3.087l1.45-37.549h.07l.83 3.663a3.591 3.591 0 003.546 3.035h8.113a2.9 2.9 0 002.903-2.9zm-24.582-4.121v-10.568h3.8v10.568l-2.018 2.38z"/><path data-name="パス 9688" d="M1132.721 3837.54v24.151h3.8v-20.352h43.045v36.3h-43.047v-4.57h-3.8v8.367h50.646v-43.896z"/><path data-name="パス 9689" d="M1151.847 3891.247a5.358 5.358 0 10-5.357 5.357 5.357 5.357 0 005.357-5.357z"/><path data-name="パス 9690" d="M1146.489 3899.47a8.878 8.878 0 00-8.31 6.014h16.62a8.878 8.878 0 00-8.31-6.014z"/><path data-name="パス 9691" d="M1174.953 3891.247a5.358 5.358 0 10-5.357 5.357 5.357 5.357 0 005.357-5.357z"/><path data-name="パス 9692" d="M1169.596 3899.47a8.879 8.879 0 00-8.31 6.014h16.62a8.878 8.878 0 00-8.31-6.014z"/></g></g></svg>